<?xml version="1.0" standalone="no"?> 
<!DOCTYPE svg PUBLIC "-//W3C//DTD SVG 1.1//EN" "http://www.w3.org/Graphics/SVG/1.1/DTD/svg11.dtd" >
<svg xmlns="http://www.w3.org/2000/svg">
<defs>
  <font id="connect-icons" horiz-adv-x="320">
    <font-face font-family="connect-icons"
      units-per-em="512" ascent="448"
      descent="64" />
    <missing-glyph horiz-adv-x="0" />
<glyph path-name="activities" unicode="&#x41;" horiz-adv-x="320" d=" M308 208.9C298.6 223.7 273 207.6 251.5 194.1S195 152.4 160 152.4C126.4 152.4 90.1 180.7 68.6 195.4C47 208.8 21.4 224.9 12 210.2C2.5 194 41.6 169.8 57.8 157.6C75.3 145.5 113 124 113 107.9C113 62.1 84.7 -14.5 80.8 -25.3C76.7 -37.4 68.7 -56.2999999999999 79.5 -61.6999999999999C88.9 -66.9999999999999 105.1 -65.7999999999999 118.5 -32.0999999999999C130.6 -2.4999999999999 146.8 36.5000000000001 158.8 36.5000000000001S187.1 -3.7999999999999 199.1 -32.0999999999999C213.9 -65.6999999999999 230.1 -67.0999999999999 238.1 -61.6999999999999C248.8 -54.9999999999999 240.8 -37.3999999999999 236.8 -25.3C232.7 -14.6 204.6 62.1000000000001 204.6 107.9C204.6 124 242.3 146.9 259.8 157.6C279.7 168.5 317.4 192.8 308 208.9zM161.3 256C183.557 256 201.6 237.957 201.6 215.7S183.557 175.4 161.3 175.4S121 193.443 121 215.7S139.043 256 161.3 256z"></glyph><glyph path-name="activity-climbing" unicode="&#x42;" horiz-adv-x="320" d=" M147.9 256C160.382 256 170.5 245.882 170.5 233.4S160.382 210.8 147.9 210.8S125.3 220.918 125.3 233.4S135.418 256 147.9 256zM51 136.5L57.7 135.2C62.9 133.9 69.6 136.5 70.9 141.9L92.1 188.3C94.8 193.5 92.1 199 86.9 201.5L76.2 205.4C71 206.7 65.5 204.1 63 198.7L44.3 148.3C43 143.2 45.7 137.8 51 136.5zM51 1.1C56.2 1.1 60.3 5.1 61.7 9.1L100.2 87.5L77.6 107.4L40.5 18.5C40.5 17.2 39.2 14.5 39.2 11.8C40.4 5 45.7 1.1 51 1.1zM267.4 80.7L267.4 80.7H226.3L205.1 29L153.3 2.4L118.7 -37.4L63 -21.5C56.3 -20.2 49.8 -22.8 48.4 -29.5C47.1 -36.2 49.7 -42.7 56.4 -44.1L126.8 -64L167.9 -17.5L223.7 10.3L242.4 55.4H269C275.7 55.4 280.9 60.6 280.9 67.4C279.4 76.8 274.1 80.7 267.4 80.7zM85.6 113.9L106.8 91.3L106.8 91.3L143.9 80.6L149.1 31.5C150.4 27.6 154.3 24.8 159.8 24.8C166.5 24.8 171.8 30 171.8 35.5C171.8 36.8 169.1 100.5 169.1 100.5L122.7 120.5L135.9 148.3L146.6 173.5L178.5 154.8C179.8 153.5 181.2 153.5 183.7 153.5C185 153.5 185 153.5 186.4 153.5L203.7 157.5L182.5 38C182.5 34.1 183.8 31.3 187.7 30C189 30 190.4 30 190.4 30C193.1 31.3 194.4 32.7 194.4 35.2L217 160.3H219.7C224.9 163 229 168.3 227.7 173.5S221 182.8 215.7 181.5L186.4 174.9L154.5 192.2C151.8 194.9 150.5 197.4 150.5 198.9C147.8 202.9 130.6 209.6 126.6 210.9C122.6 210.9 121.4 212.2 115.9 209.6C110.7 206.9 82.7 141.9 81.3 133.9C80.2 127.2 84.2 117.8 85.6 113.9z"></glyph><glyph path-name="activity-cycling" unicode="&#x43;" horiz-adv-x="320" d=" M193.3 211.9C193.3 223.9 204 234.6 216 234.6S238.7 223.9 238.7 211.9S227.9 189.3 216 189.3C204 189.3 193.3 199.9 193.3 211.9zM212 131.9L245.3 129.2C245.3 129.2 252 123.9 250.6 117.2C250.6 110.5 243.9000000000001 107.9 243.9000000000001 107.9L203.9 110.6C203.9 110.6 197.2000000000001 114.6 195.9 117.3C193.2000000000001 121.3 186.6 150.6 186.6 150.6L142.6 115.9L170.6 91.9C170.6 91.9 177.3 85.2 178.6 81.2S178.6 65.2 178.6 65.2L168 10.6C168 10.6 161.3 3.9 154.7 5.3C148 8 145.4 17.3 145.4 17.3L156.1 69.3L106.8 109.3C106.8 109.3 101.5 116 101.5 121.3S108.2 136 108.2 136L166.9 192C166.9 192 172.2 194.7 178.9 194.7S190.9 188 190.9 188S200.2 174.7 202.9 165.3C205.6 155.9 212 131.9 212 131.9zM252 93.3C214.7 93.3 184 62.6 184 25.3S214.7 -42.7 252 -42.7S320 -12 320 25.3C320 62.7 289.3 93.3 252 93.3zM252 -24C224 -24 202.7 -1.3 202.7 25.3S225.3 74.7 252 74.7C280 74.7 301.3 52 301.3 25.4C301.3 -1.3 280 -24 252 -24zM68 93.3C30.7 93.3 0 62.6 0 25.3S30.7 -42.7 68 -42.7S136 -12 136 25.3C134.7 62.7 105.3 93.3 68 93.3zM68 -24C40 -24 18.7 -1.3 18.7 25.3S41.3 74.7 68 74.7C96 74.7 117.3 52 117.3 25.4C117.3 -1.3 94.7 -24 68 -24z"></glyph><glyph path-name="activity-elliptical" unicode="&#x44;" horiz-adv-x="320" d=" M134.8 256C148.497 256 159.6 244.897 159.6 231.2S148.497 206.4 134.8 206.4S110 217.503 110 231.2S121.103 256 134.8 256zM249.2 34.7L228.1 149.7L232.1 150.7C238.5 152.3 242.4 158.8 240.8 165.2C240.1 167.9 238.6 170.1 236.5 171.7L263 203.3C265.6 206.3 265.2 210.9 262.2 213.4C259.2 216 254.6 215.6 252.1 212.6L217.7 171.9L184.6 163.6L149.6 187.9H149.5C147.9 189.1 146 190 143.8 190.4L118.5 194.7C111.1 196 104.1 191 102.9 183.6L89.9 108C88.3 96.9 94.3 89.5 108.8 83.4L146.8 68.2L123.6 4.9C123.6 4.8 123.6 4.8 123.6 4.7L123.3 4.8C120.1 5.7 116.8 3.8 115.9 0.7C115 -2.4999999999999 116.9 -5.8 120 -6.6999999999999L173.8 -21.8999999999999C175.2 -28.7999999999999 177.9 -35.1999999999999 181.6 -40.7999999999999L84.5 -28.4999999999999C88.7 -28.3999999999999 92.2 -23.8999999999999 94 -18.5999999999999L112.3 25.1000000000001L114.4 72.3000000000001L106.9 75.4000000000001C97.4 79.6000000000001 89.7 83.7000000000001 87.4 89.6000000000001L86.3 29.4L67.5 -15C65.7 -19.7 66.9 -25.5 72 -27L49.3 -24C46 -23.8 43.2 -26.3 42.9 -29.6C42.7 -32.9 45.2 -35.7 48.5 -35.9L193.8 -53.8C202.5 -60.3 213.4 -64.3 225.1 -64.3C254.0000000000001 -64.3 277.4000000000001 -40.9 277.4000000000001 -12C277.3 8.5 265.9 26 249.2 34.7zM224.9 40.7C196.8 40.7 174 18.6 172.7 -9.2L148.2 -2.3L177.4 72.6C179.3 78.6 177.7 82.7 171.5 87L140.4 103.4L151.4 154.7L176.7 140.5C180.1 138.9 183.2 138.8 187.6 139.7L215.4 146.7L234.3 39.9C231.3 40.4 228.2 40.7 224.9 40.7z"></glyph><glyph path-name="activity-fitness-equipment" unicode="&#x45;" horiz-adv-x="320" d=" M0 150.7H33.3V42.7H0V150.7zM53.3 176H86.6V16H53.3V176zM286.7 150.7H320V42.7H286.7V150.7zM232 176H265.3V16H232V176zM108 105.3H213.3V88H108V105.3z"></glyph><glyph path-name="activity-golf" unicode="&#x46;" horiz-adv-x="320" d=" M165.8 252.6C181.982 252.6 195.1 239.482 195.1 223.3S181.982 194 165.8 194S136.5 207.118 136.5 223.3S149.618 252.6 165.8 252.6zM125.8 196.6C125.8 196.6 59.1 151.3 52.5 143.3C47.2 138 56.5 126 61.8 120.6C71.1 112.6 83.1 123.3 76.5 129.9C72.5 133.9 64.5 140.6 64.5 140.6L132.5 191.3L125.8 196.6zM268.4 223.3C265.7 226 240.4 244.6 232.4 251.3C219.1 263.3 197.8 250 211.1 239.3L229.8 226C229.8 226 232.5 224.7 235.1 222C235.1 222 205.8 202 203.1 199.3C189.8 188.5 168.5 175.2 159.1 163.2C151.1 153.9 189.8 97.9 189.8 97.9S184.5 52.6 179.1 45.9C173.8 39.2 129.8 -20.8 123.1 -30.1C109.8 -48.8 131.1 -68.8 151.1 -43.4C157.8 -34.1 195.1 11.3 195.1 11.3S213.8 32.6 224.4 53.9999999999999C235.1 76.6999999999999 239.1 92.6999999999999 239.1 96.6999999999999C239.1 127.3999999999999 216.4 182 217.8 178S255.1 206 260.5 210L260.5 210C265.8 216.6 271.1 220.6 268.4 223.3zM217.8 15.3V-50C217.8 -68.7 247.1 -68.7 247.1 -50C247.1 -50 249.8 22 249.8 47.3C249.8 51.3 248.5 56.6 244.5 74C244.5 74 240.5 55.3 235.2 43.3C229.9 31.4 217.8 15.3 217.8 15.3z"></glyph><glyph path-name="activity-hiking" unicode="&#x47;" horiz-adv-x="320" d=" M169.4 229.2C169.4 243.9 181.4 256 196.2 256C210.8 256 222.9 243.9 222.9 229.2S210.8 202.4 196.1 202.4C181.4 201.1 169.4 214.6 169.4 229.2zM131.8 174.4C134.5 181.1 130.5 187.7 125.1 190.5L113 194.5C106.3 197.2 99.7 193.2 96.9 186.5L75.5 125C72.8 118.3 76.8 111.7 83.5 110.3L91.5 107.6C98.2 106.3 106.2 110.3 108.9 115.6L131.8 174.4zM160 -63.9C162.7 -63.9 165.4 -62.5 166.7 -59.9L259.1 100.7C261.7000000000001 104.8 260.4000000000001 108.8 256.4000000000001 111.5C252.3000000000001 114.1 248.3000000000001 112.8000000000001 245.6 108.8L153.3 -51.8C150.7 -55.9 152 -59.9 156 -62.6C157.3 -63.9 158.7 -63.9 160 -63.9zM112 70.8L66.3 -42.4C65 -45.1 63.6 -47.7 63.6 -50.4C63.6 -58.4 70.3 -63.7 76.9 -63.7C83.6 -63.7 87.7 -59.7 90.2 -54.3L136.5 45.3L112 70.8zM253.3 113.2C253 113.3 218.7 131.7 216.3 134.3C213.7 137 197.5 179.8 194.8 185.1C192.2 190.1 172.6 196.5 166.2 198.2C165.7 198.3 165.1 198.4 164.6 198.4C161 198.5 158.3 199.4 153.4 195.6C146.7000000000001 192.9 116 111.2 114.6 101.9C113.3000000000001 95.4 113.7 87.1 120.8000000000001 78.1L166.7000000000001 25.8C167.6000000000001 24.8 168.1000000000001 23.6 168.3000000000001 22.3L179.8000000000001 -54.7C179.9 -55.6 180.3000000000001 -56.5000000000001 180.8000000000001 -57.3000000000001C183.5 -61.7 187.2000000000001 -64.0000000000001 192.1000000000001 -64.0000000000001C200.1000000000001 -64.0000000000001 205.4000000000001 -57.3000000000001 205.4000000000001 -50.7C205.4000000000001 -48.2 197.4000000000001 20.3 196.2000000000001 30.9C196.1000000000001 31.8 195.8000000000001 32.7 195.3000000000001 33.4999999999999L165.7000000000001 85.4C164.6000000000001 87.3 164.5000000000001 89.5999999999999 165.4000000000001 91.5999999999999L183.1000000000001 137.5C185.5000000000001 143 189.0000000000001 145.6999999999999 191.4000000000001 140.1999999999999C193.7000000000001 134.9 199.6000000000001 117.5 202.4000000000001 115.9C204.9000000000001 114.7 238.7000000000001 100.5999999999999 239.3000000000001 100.4C242.2000000000001 99.3 255.0000000000001 94.2 257.9000000000001 100.4999999999999C260.2 106 259.7 110.1 253.3 113.2z"></glyph><glyph path-name="activity-marine" unicode="&#x48;" horiz-adv-x="320" d=" M104.4 103.4C104.4 103.4 148 140.9 200.9 156.8C200.9 156.8 221.5 146.8 225.8 133.6C187.3 131.3 104.4 103.4 104.4 103.4zM317.5 127.1C315.2 130.8 265.1 138.2 174.9 117.4C114.2 100.9 83 90.7 83 90.7C74.4 87.9 71.3 84.8 68.5 80.7C66.5 77.9 62.7 70.3 62.7 70.3S74.8 62.9 97.9 65.9S141.6 73.8 172.1 80.2C200.5 86.2 227.8 86.9 256.4000000000001 74.2C289.7 90.9 319.8 123.4 317.5 127.1zM60.5 117.1C45.9 119.4 32.2 112.6 34.2 95.4C35.7 82.2 41.3 75 57.5 72C62.5 85 68.7 92.1 81 95.9C80.1 109.8 72.5 115.2 60.5 117.1zM52.7 42.6C81.4 32.2 100.3 33.2 139.4 42.6C155.1 46.1 170.5 51.4 181.4 53.9C199.6 57.9 215.8 59.5 238.1 51.7C245.5000000000001 49.1 254.6 45.3 258.6 44C276.8 37.8 280.9000000000001 51.9 270 58.6C260.8 64.3 259.4 65.3 245.6 70.9C242.2 72.3 228.8 77.5 208.1 77.7000000000001C176.3 75.9 165.3 71.7000000000001 151.3 68.5000000000001C141.2 66.2000000000001 123.2 62.2000000000001 115 61.2000000000001C103.3 59.7000000000001 98 57.8 82.8 58.7000000000001C75 59.1000000000001 66.4 60.3 51.8 65.3C45.8 67.3 41.3 69.1000000000001 34.9 72.3C23.6 78.7 23 79.1 15 84C6.4 89.3 1.7 83.8 2.4 77.8C3.3 69.6 17.8 55.3 52.7 42.6z"></glyph><glyph path-name="activity-motorcycle" unicode="&#x49;" horiz-adv-x="320" d=" M180.1 180.3C184.3 181.5 187.8 184 190.3 187.3L182.6 193.1L185.3 204.9L193.8 203.1C193.7 203.5 193.6 203.9 193.5 204.4C190.6 214.7 179.8 220.7 169.5 217.8C159.2 214.9 153.1 204.1 156.1 193.8C158.9 183.4 169.7 177.4 180.1 180.3zM205.5 136C205.5 137.8 206.9 139.1 210.8 139.4H211.9C212.1 144.3 207.2 147.3 200.8 148.9C196 150.1 189.2 152.6 182.8 154.7C178.3 156.7 178 169.6 170.4 175.8C164.1 181 156.6 184.9 147.6 182.7C135.3 179.3 115.1 134.6 109.8 123.9C104.1 112.5 103.8 104.1 116.2 92.8C120.4 88.9 124.8 85.1000000000001 129.2 81.3C134.9 76.3 140.6 71.4 146.7 66.1000000000001C143 53.1000000000001 139.1 43.4000000000001 136.4 34.1000000000001C134.1 26.1000000000001 134.1 16.6000000000001 140.8 13.9000000000001C147.8 11.1000000000001 154.3 19.4000000000001 157 27.1000000000001C160.9 38.4000000000001 163.3 46.5000000000001 166.9 57.2000000000001C169.8 65.9 171.7 74.5000000000001 163.3 82.9C155.5 90.6 147.7 98.3 139.8 106.2000000000001C147.9 119.8000000000001 155.7 132.9 163.5 146.2000000000001C169.6 142.7000000000001 171.7 139.7000000000001 177.3 136.6000000000001C178.8 135.8000000000001 187.8 133.0000000000001 199.9 131.7000000000001C203.8 131.3000000000001 206.7 131.7000000000001 208.7 133.0000000000001C206.5 133.5 205.5 134.7 205.5 136L205.5 136zM49 71.5C22.1 71.5 0 49.4 0 22.5S22.1 -26.5 49 -26.5S98 -4.4 98 22.5C98.2 49.4 76.1 71.5 49 71.5zM49 -13.2C28.9 -13.2 13.4 3.2 13.4 22.4S29.6 58 49 58C69.1 58 84.6 41.6 84.6 22.4S69.3 -13.2 49 -13.2zM252 107.7L252.8 107.9C254.6 108.1 255.2 109.7 255.2 111.6V125.5C255.2 127.3 254.6 129.1 252.8 129.5L244.2 131.4C243.3 134.9 235.3 140.2 230.7 140.2L210.2 139.6C206.3 139.3 205 138.4 205 136.6C205 134.2 207.7 133.9 210.6 133.9H221.6L224.9 124.6L221.6 115.7L217.5 119C215.3000000000001 121.1 211.4 123.3 207.8000000000001 123.2C204.6000000000001 123.2 199.6000000000001 122.9 192.2000000000001 122.4C174.2000000000001 121.3 164.5000000000001 110.3 156.6000000000001 102.4999999999999C160.9000000000001 98.3 165.2000000000001 93.9999999999999 169.4000000000001 89.8C182.6000000000001 76.6 177.6000000000001 61.7 175.3000000000001 54.6C173.9000000000001 50.3 170.0000000000001 36.7 167.6000000000001 29.9C166.5000000000001 26.7 164.5000000000001 21.3 162.8000000000001 19.1C173.9000000000001 19.3 190.1000000000001 22.1 202.7000000000001 41.5C213.6000000000001 58.2 237.0000000000001 104.5 237.0000000000001 104.5L238.5000000000001 104.9L266.7000000000001 26C268.0000000000001 23.7 270.0000000000001 22.5 272.3000000000001 22.5C275.9000000000001 22.5 278.8000000000001 25.4 278.8000000000001 29C279.2 30.2 252 107.7 252 107.7L252 107.7zM274.6 71.3C276.5 65.9 278.1 61.1 279.5 57.1C295.4 53.3 306.7 39 306.7 22.5C306.7 3.2 291.3 -13.1 271.1 -13.1C251 -13.1 235.5 3.3 235.5 22.5C235.5 33.2 240.6 43.1 248.4 49.7L243.6 63.1C230.6 54.2 222 39.3 222 22.5C222 -4.4 244.1 -26.5 271 -26.5S320 -4.4 320 22.5C320.3 48.2 300 69.6 274.6 71.3zM111.8 85.9C106.4 91.3 102.2 97.5 99.6 102.1C97.6 104.7 86.7 105.1 84.5 105.1L49.5 105.6C35.6 105.5 20.4 103.3 20.9 94.3C21.2 89.3 37.2 90.6 49.2 90.6L49.2 90.6C84.1 90.6 111.2 66.1 116.4 35.3C118.5 24.4 118.5 22 123.4 19.5L123.4 19.5C124.8 18.8 134.6 58.3 135.9 62.9C135.7 63.1 115.1 82.7 111.8 85.9z"></glyph><glyph path-name="activity-multisport-people" unicode="&#x4a;" horiz-adv-x="320" d=" M272.4 65.3C272.4 70 276.3 73.8 280.9 73.8C285.7 73.8 289.4 69.9 289.4 65.3C289.4 60.6 285.5 56.8 280.9 56.8S272.4 60.6 272.4 65.3zM279.5 35.4L291.9 34.6C291.9 34.6 294.3 32.8 294.1 30.1C294 27.4 291.4 26.5 291.4 26.5L276.3 27.3C276.3 27.3 273.9 28.7 273.1 30C272.3 31.3 269.8 42.4 269.8 42.4L253.5 29.4L263.8 20.4C263.8 20.4 266.3 18.1 266.7 16.5C267 14.9 266.5 10.4 266.5 10.4L262.6 -10.2C262.6 -10.2 260.2 -12.8 257.7 -12C255.3 -11.2 254.1 -7.3 254.1 -7.3L258 12.2L239.7 26.4C239.7 26.4 237.8 28.6 237.8 30.8C237.8 32.9 240.4 36.1 240.4 36.1L262.6 57.2C262.6 57.2 264.5 58.3 267 58.3C269.3999999999999 58.3 271.6 55.9 271.6 55.9S275.4 50.9 276.1 47.5C276.9 44.2 279.5 35.4 279.5 35.4L279.5 35.4zM294.6 20.6C280.6 20.6 269.2000000000001 9.2 269.2000000000001 -4.8S280.6 -30.2 294.6 -30.2S320 -18.8 320 -4.8C320 9.2 308.6 20.6 294.6 20.6zM294.6 -23.6C284.3 -23.6 275.9000000000001 -15.3 275.9000000000001 -4.9C275.9000000000001 5.4 284.3 13.8 294.6 13.8C304.9000000000001 13.8 313.3 5.3999999999999 313.3 -4.9C313.4 -15.1 305 -23.6 294.6 -23.6zM225.3 20.6C211.3 20.6 199.9 9.2 199.9 -4.8S211.3 -30.2 225.3 -30.2S250.7 -18.8 250.7 -4.8C250.6 9.2 239.3 20.6 225.3 20.6zM225.3 -23.6C215 -23.6 206.6 -15.3 206.6 -4.9C206.6 5.4 214.9 13.8 225.3 13.8C235.6 13.8 244 5.3999999999999 244 -4.9C243.9 -15.1 235.6 -23.6 225.3 -23.6zM80.2 105C74.6 105 70.1 100.4 70.1 94.9C70.1 89.3 74.7 84.8 80.2 84.8S90.3 89.4 90.3 94.9C90.2 100.5 85.8 105 80.2 105L80.2 105zM31.3 89.5C37 89.5 39.9 81.2 46.2 81.2C51.9 81.2 53.9 85.9 59.2 89.5C61.5 91.1 63.9 91.8 65.4 91.8C66.9 91.8 63.8 95.8 63.8 95.8L55.4 103.4L63.4 124.6L86.1 121.3C86.1 121.3 91 120.8 91.9 125.9C92.7 130.8 87.9 132.2 87.9 132.2L61 137.2C61 137.2 57 137.9 54.7 135.8C53 134.2 52 130.4 52 130.4S43.9 108 42.7 106.6C41.4 105.3 38.9 103 38.9 103L3.2 83.5C5.4 82.5 7.9 82 10.5 81.9C18.5 81.2 20.8 89.5 31.3 89.5L31.3 89.5zM106.5 79.2C108 79 109.3 77.9 109.3 76.2S108 73.1 106.5 73.2C95.3 74 89 57.7 74.8 68C57.8 80.6 53.6 54.7 38.1 68C21.2 82.4 16.1 52.2 0.8 68.5C-0.2 69.6 -0.2 71.3 0.8 72.5C1.8 73.6 3.5 73.6 4.5 72.5C14.1 61.6 22.8 88 38.2 75.1C55.2 60.9 56.3 87.7 74.9 75.1C90.5 64.6 93.2 81.2 106.5 79.2zM227 206.5C227 220.2 238.2 231.4 251.9 231.4C265.6 231.4 276.8 220.2 276.8 206.5S265.6 181.6 251.9 181.6C238 181.7 227 192.8 227 206.5zM135.6 -6L179.4 52.1L154.9 81L150.5 44.3C150.5 44.3 149.5 36.3 147.2 32.6S138.9 22.9 138.9 22.9L89.3 -34.8C84.9 -40.1 77 -40.9 71.6 -36.4999999999999C66.2 -31.9999999999999 65.5 -24.1999999999999 70 -18.8L122.2 43.0000000000001L130.2 103.1000000000001C130.2 103.1000000000001 132.8 119.1000000000001 135.9 126.1000000000001C138.9 133.1000000000001 148.6 143.4 148.6 143.4L177.9 181L173.5 183.6L125.1 152.2C119.4 148.1 111.6 149.4 107.6 155C103.5 160.6 104.9 168.5 110.4 172.5C110.4 172.5 159.8 206.2 163.4 208.4S172.2 213.4 179.4 211.5C186.6 209.7 217.2 192.8 234.1 176.4S251.4 135.5 251.4 135.5L296.5 149.4C303.9 151.5 311.6 147.2 313.7 139.7C315.8 132.3 311.5 124.5 304 122.5L250.4 105C250.4 105 245 104.1 238.8 108.6C232.6 113.1 222.4 137 222.4 137L178.4 99.7C178.4 99.7 201.5 71.4 205.1 66.8C208.5 62.2 209.2 59.3 208.8 53.9C208.4 48.5 204.2 43.2 204.2 43.2L155.6 -20.8C151.5 -26.4 143.7 -27.6 138.2 -23.4C132.7 -19.4 131.5 -11.6 135.6 -6L135.6 -6z"></glyph><glyph path-name="activity-multisport" unicode="&#x4b;" horiz-adv-x="320" d=" M164.3 33.4C158.7 64.8 134.6 90.8 103.8 98.8C103.4 91.5 103.5 77 110.6 73.4C118.5 69.4 125.5 63.6 131 56.6C139.9 45.3 144.5 31.1 144.1 16.7C143.1 -13.9 118.9 -39.7 88.3 -42.4C58.1 -45.1 29.7 -24.6 23 5C15.1 39.4 38.9 74.3 73.8 79.4C72.5 86.5 72 93.7 72.4 100.9C38.4 96.6 9.8 70.8 2.2 37.4C-4.8 6.8 6.5 -25.9 30.9 -45.6C56.1 -66 92.1 -69.7 121 -54.7C152.7 -38.3 170.6 -2 164.3 33.4C164.2 33.9 165.1 28.6 164.3 33.4zM149.4 173.2C149.4 174.8 149.4 176.5 149.5 178.1C137 176.5 124.9 172 114.4 165.1C104 158.2 95.2 149 88.8 138.3C82.2 127.1 78.2 114.5 77.4 101.5C76.6 89.5 78.4 77.5 82.7 66.3C86.1 57.3 91.2 49 97.5 41.7C103.8 34.5 111.3 28.4 119.6 23.7C125.7 20.3 132.2 17.6 139 15.9C139.3 22.1 138.6 28.3 136.9 34.3C136.5 35.8 136 37.2 135.5 38.6C135.4 38.9 135.2 39.3 135.1 39.6C134.9 40 134.8 40 134.4 40.2C133.8 40.5 133.2 40.8 132.6 41.1C130.3 42.3 128.1 43.6 125.9 45C117.4 50.7 110.3 58.6 105.6 67.8C99.9 78.8 97.7 91.4 99.2 103.7000000000001C100.8 116.4 106.4 128.5000000000001 115.2 137.8000000000001C123.9 147.2000000000001 135.6 153.7000000000001 148.1 156.2000000000001C149.1 156.4 150 156.6000000000001 151 156.7000000000001C149.9 162.1 149.4 167.7 149.4 173.2zM319.1 185.8C314.3 216.9 291.4000000000001 243.3 261.3 252.4C231.6 261.4 198.5 252.6 177.1 230.1C134.7 185.3 156.3 108.7 216.2 93.1C216.5 99.6 216.5 115 210 118.2C202.3000000000001 122 195.4 127.5 189.9 134.2C181.5 144.3 178.1 156.1 176.3000000000001 169C172.4 196.4 193 223.4 218.4 231.6C249.2000000000001 241.6 283.5 225 294.8000000000001 194.7C308.3000000000001 158.7 284.4000000000001 118.2 246.4000000000001 112.5C247.7000000000001 105.4 248.2000000000001 98.2 247.8000000000001 91C293.4 96.8 326 140.5 319.1 185.8C318.9 187.2 319.7 181.7 319.1 185.8zM218.4 114.8C222.3 102.7 222.3 89.4 218.4 77.3S206.9 54.5 196.7 46.9C188.6 40.8 179 36.8 169 35.3C170.3000000000001 28.2 170.8000000000001 21 170.4 13.8C183.1 15.4 195.3000000000001 20 205.9 27.1C216.3000000000001 34.1 225.1 43.4 231.5000000000001 54.2C238.0000000000001 65.3 241.8000000000001 77.8 242.6 90.5C243.4000000000001 103.4 241.3 116.3 236.2 128.2C231.4 139.4 224.2 149.5 215.1 157.6S195.2 171.8 183.5 175.3C182.7 175.5 181.8000000000001 175.8 181 176C180.7 169.8 181.4 163.5 183.1 157.5C183.5 156 184 154.6 184.6 153.1C184.7 152.8 184.9 152.4 185 152.1C185.1 151.8 185.6 151.7 185.9 151.5C186.6 151.2 187.4 150.8 188.1 150.4C190.8 149 193.5 147.4 196 145.5C206.1 138.2 213.9 127.7 218 115.9C218.1 115.7 218.3 115.3 218.4 114.8"></glyph><glyph path-name="activity-other" unicode="&#x4c;" horiz-adv-x="320" d=" M308 208.9C298.6 223.7 273 207.6 251.5 194.1S195 152.4 160 152.4C126.4 152.4 90.1 180.7 68.6 195.4C47 208.8 21.4 224.9 12 210.2C2.5 194 41.6 169.8 57.8 157.6C75.3 145.5 113 124 113 107.9C113 62.1 84.7 -14.5 80.8 -25.3C76.7 -37.4 68.7 -56.2999999999999 79.5 -61.6999999999999C88.9 -66.9999999999999 105.1 -65.7999999999999 118.5 -32.0999999999999C130.6 -2.4999999999999 146.8 36.5000000000001 158.8 36.5000000000001S187.1 -3.7999999999999 199.1 -32.0999999999999C213.9 -65.6999999999999 230.1 -67.0999999999999 238.1 -61.6999999999999C248.8 -54.9999999999999 240.8 -37.3999999999999 236.8 -25.3C232.7 -14.6 204.6 62.1000000000001 204.6 107.9C204.6 124 242.3 146.9 259.8 157.6C279.7 168.5 317.4 192.8 308 208.9zM161.3 256C183.557 256 201.6 237.957 201.6 215.7S183.557 175.4 161.3 175.4S121 193.443 121 215.7S139.043 256 161.3 256z"></glyph><glyph path-name="activity-running" unicode="&#x4d;" horiz-adv-x="320" d=" M175.1 12.3C165.8 20.3 156.5 28.2 148.6 36.2C142 41.4 135.4 48.1 128.8 53.4C109 70.6 109 83.9 118.1 101.1C126.1 117 132.7 134.2 140.7 151.5C140.7 151.5 140.7 152.8 140.7 154.2000000000001C130 154.2000000000001 119.6 152.9 115.5 141C112.8 134.4 108.9 129.1 103.6 122.4C98.4 114.4 89 111.7000000000001 82.5 115.8000000000001C73.2 121 73.2 127.7000000000001 78.6 136.9C85.2 148.8000000000001 91.8 160.8000000000001 98.4 172.6C102.3 179.2000000000001 107.7 183.3000000000001 117 184.5000000000001C132.9 187.2000000000001 150.1 189.7000000000001 166 191.1C179.2 192.4 191.2 189.8000000000001 203 181.8000000000001C216.2 172.5000000000001 228.2 162.0000000000001 241.5 152.7000000000001C248.1 162.0000000000001 256.1 172.5000000000001 262.6 183.2000000000001C269.2 192.5000000000001 277.2 195.1000000000001 285.2 189.8000000000001S294.5 175.2000000000001 289.2 165.9C277.3 151.3000000000001 266.6 136.8000000000001 256.1 120.9C249.5 112.9 242.9 111.6 233.5 115.7000000000001C222.8 120.9 212.4 127.6000000000001 200.4 134.3000000000001C188.5 114.5 176.5 93.3 163.4 72.0000000000001C175.3 60.1000000000001 187.3 48.1000000000001 199.1 36.2C212.3 23.0000000000001 213.7 12.3 204.3 -3.6C194.9 -19.4999999999999 185.7 -35.4 176.5 -52.6C169.9 -63.2999999999999 160.5999999999999 -67.2 151.3 -61.9C142 -56.7 140.6 -46 147.3 -35.4C156.6 -18.3 165.8 -3.6 175.1 12.3zM102.2 62.5C108.8 46.6 118.1 38.6 130 30.7C119.3 16.1 114.1 2.9 102.2 -10.3C89 -26.2 71.7 -38.1 57.2 -54C50.6 -60.6 42.6 -62 36.1 -58C29.5 -54 26.8 -47.3 28.1 -39.4C28.1 -36.7 30.8 -32.8 33.3 -30.1C65.1 -4.9 85 10.9 98.2 50.7C98.2 50.6 99.5 53.3 102.2 62.5zM204.3 256C220.371 256 233.4 242.971 233.4 226.9S220.371 197.8 204.3 197.8S175.2 210.829 175.2 226.9S188.229 256 204.3 256z"></glyph><glyph path-name="activity-swimming" unicode="&#x4e;" horiz-adv-x="320" d=" M124.4 25.9C92.3 25.9 41.5 37.9 9.4 37.9C6.7 37.9 4.1 37.9 0.1 37.9C2.8 32.6 5.4 28.6 8.1 24.6L8.1 24.6C40.2 24.6 91 12.6 123.1 12.6S206 24.6 238.1 24.6C251.4000000000001 24.6 268.9000000000001 21.9 287.5 20.6C290.2 24.6 292.8 28.6 295.5 32.6C274.2 35.3 254.1 37.9 238.1 37.9C207.3 37.8 156.4 25.9 124.4 25.9zM124.4 -2.3C95.1 -2.3 48.2 7 16.1 8.5C18.8 5.8 22.8 -0.8 25.4 -3.5C57.5 -6.2 96.3 -14.3 124.4 -14.3C156.5 -14.3 207.3 -2.3 239.4 -2.3C250.2 -2.3 259.4 -2.3 272.8 -5C274.1 -2.3 279.5 3 280.8 5.8C266.1 8.5 251.5 9.8 239.4 9.8C207.3 9.8 156.4 -2.3 124.4 -2.3zM304.9 158.1C258 183.5 230 206.3 196.6 206.3S119.1 127.4 96.4 103.3S49.6 67.2 25.5 57.9C20.2 56.6 16.2 55.2 12.2 53.9C44.3 52.6 92.4 41.9 121.7 41.9C136.4 41.9 155.1 44.6 173.8 47.2C171.1 51.2 163 58 159.1 66C147.1 96.7 189.9 160.9 203.3 160.9C230.1 160.9 250.1 155.6 292.8 128.8000000000001C315.6 115.5 334.3 142.1 304.9 158.1zM260.7 52.6C264.7 57.9 266 64.6 266 71.4C266 90.2 250 106.2 231.2 106.2S196.4 90.2 196.4 71.4C196.4 63.4 199.1 56.7 203.1 51.4C215.1 52.7 225.8 54.1 235.2 54.1C243.4 55.3 251.4 53.9 260.7 52.6z"></glyph><glyph path-name="activity-transition" unicode="&#x4f;" horiz-adv-x="320" d=" M264 127.4L205.3 159.4V111.4H116C109.3 134.1 86.7 155.4 58.7 155.4C26.7 155.5 0 128.8 0 95.4S26.7 36.7 60 36.7C86.7 36.7 110.7 56.7 117.3 80.7H206.6V32.7L265.3 64.7L320 95.4L264 127.4z"></glyph><glyph path-name="activity-uncategorized" unicode="&#x50;" horiz-adv-x="320" d=" M103 136C103 143.2 105.3 150.6 110 158.1S121.5 171.7 130.4 176.6C139.4 181.5 149.8 184 161.7 184C172.8 184 182.5 181.9 191 177.8S206.1 168.1 210.7 161.1C215.3 154.1 217.6 146.4 217.6 138.2C217.6 131.7 216.3 126 213.7 121.1C211.1 116.2 207.9 112 204.3 108.4C200.7 104.8 194.1 98.9 184.7 90.5C182.1 88.1 180 86.1 178.4 84.2C176.8 82.4 175.7 80.8 174.9 79.3S173.5 76.3 173.1 74.8C172.7 73.3 172 70.7 171.2 67C169.7 59.1 165.2 55.1 157.6 55.1C153.6 55.1 150.3 56.4 147.6 59C144.9 61.6 143.5 65.5 143.5 70.6C143.5 77 144.5 82.6 146.5 87.3S151.1 96.1 154.4 99.7C157.7 103.3 162.1 107.4 167.7 112.4C172.6 116.7 176.1 119.9 178.3 122.0999999999999C180.5 124.2999999999999 182.3 126.6999999999999 183.8 129.3999999999999S186 135 186 138.0999999999999C186 144.1999999999999 183.7 149.3999999999999 179.2 153.5999999999999S168.8 159.8999999999999 161.6 159.8999999999999C153.2 159.8999999999999 147 157.8 143 153.5999999999999C139 149.3999999999999 135.6 143.0999999999999 132.9 134.8999999999999C130.3 126.2999999999999 125.4 122 118.1 122C113.8 122 110.2 123.5 107.3 126.5C104.5 129.3 103 132.5 103 136L103 136zM159 10.4C154.3 10.4 150.3 11.9 146.8 14.9S141.6 22.1 141.6 27.6C141.6 32.4 143.3 36.5 146.7 39.7C150.1 43 154.2 44.6 159.1 44.6C163.9 44.6 168 43 171.3 39.7C174.6 36.4 176.2 32.4 176.2 27.6C176.2 22.2 174.5 18 171.1 15C167.5 11.9 163.5 10.4 159 10.4zM160 -64C71.8 -64 0 7.8 0 96S71.8 256 160 256S320 184.2 320 96S248.2 -64 160 -64zM160 216.9C93.4 216.9 39.1 162.7 39.1 96S93.4 -24.9 160 -24.9S280.9 29.3 280.9 96S226.6 216.9 160 216.9z"></glyph><glyph path-name="activity-walking" unicode="&#x51;" horiz-adv-x="320" d=" M175.6 256C191.727 256 204.8 242.927 204.8 226.8S191.727 197.6 175.6 197.6S146.4 210.673 146.4 226.8S159.473 256 175.6 256zM138.4 181.6C129.1 178.9 83.9 143.1 81.3 136.5C78.6 129.8 73.3 83.4 72 70C70.7 58 91.9 52.7 94.6 70C98.5 95.2 101.3 119.1 101.3 119.1L130.5 139C130.5 139 119.8 96.5 117.3 81.9C114.7 67.4 124 59.3 128 52.7C131.9 44.7 183.8 -28.3 202.4 -53.6C217 -76.2 243.5000000000001 -54.9 234.3000000000001 -40.4C218.4 -13.8 165.3000000000001 71.2 165.3000000000001 71.2L179.9 108.3C179.9 108.3 185.1 93.7 191.9 89.6C198.6 85.6 215.8000000000001 80.3 238.4000000000001 70.9C254.3000000000001 64.2000000000001 266.3 84.1 249.1 93.5C223.9 106.7 208 109.4 208 109.4S182.3000000000001 172.1 174.3 176.2000000000001C166.3 180.3 149 185.6 138.4 181.6zM113.2 54.1L137.1 18.3C137.1 18.3 134.4 9 130.4 -1.6C125.2 -12.3 94.5 -53.4 87.9 -58.7C81.2 -63.9 73.3 -66.7 66.7 -60C60 -53.3 62.7 -46.8 65.4 -42.7C68.1 -38.8 102.5 11.8 102.5 11.8L113.2 54.1z"></glyph><glyph path-name="alarm-clock" unicode="&#x52;" horiz-adv-x="320" d=" M160 205.5C85.2 205.5 25.2 145.5 25.2 70.7S85.2 -64 160 -64S294.8 -3.9 294.8 70.8S234.8 205.5 160 205.5zM160 -29.2C103.9 -29.2 58.6 16.1 58.6 72.2S103.9 173.6 160 173.6S261.5 128.3 261.5 72.2S216.1 -29.2 160 -29.2zM63.9 241.6C29.2 221.5 19.9 200.3 27.9 185.5L41.2 161.5C65.2 193.5 102.5 214.8 145.3 218.8L130.7 244.3C122.7 259 98.7 261.7 63.9 241.6zM256.1 241.6C221.4 261.6 197.3 259 189.3 244.3L174.7 219C217.4 216.3 253.5 195 278.9 163L292.2 185.6C300.1 200.3 290.8 221.6 256.1 241.6zM225.4 41.4L172.1 77.4V138.7C172.1 140 172.1 141.4 170.8 142.7S168.1 144 166.8 144H152C150.7 144 149.3 144 148 142.7S146.7 140 146.7 138.7V65.3C146.7 64 146.7 62.6 148 61.3L149.3 60L212 18.6C213.3 18.6 214.7 17.3 214.7 17.3H216C217.3 17.3 218.7 18.6 220 20L228 32C229.4 36.1 228.1 38.8 225.4 41.4z"></glyph><glyph path-name="battery-low" unicode="&#x53;" horiz-adv-x="320" d=" M320 130L296 139.3V180.6H0V11.3H296V52.6L320 61.9V130L320 130zM268 39.3H90.8V151.3H269.5L268 39.3L268 39.3z"></glyph><glyph path-name="battery-status" unicode="&#x54;" horiz-adv-x="320" d=" M108.1 206.2C104.1 206.2 101 203.1 101 199.1V-44.9C101 -48.8 104.2 -52 108.1 -52H212C215.9 -52 219.1 -48.9 219.1 -44.9V199.1C219.1 203.1 216 206.2 212 206.2L108.1 206.2L108.1 206.2zM201.4 227.9C201.4 223.9 204.5 220.8 208.5 220.8H225.3C229.3 220.8 232.4 217.6 232.4 213.7V-56.9C232.4 -60.9 229.3 -64.0000000000001 225.3 -64.0000000000001H94.7C90.8 -64.0000000000001 87.6 -60.9 87.6 -56.9V213.7C87.6 217.7 90.7 220.8 94.7 220.8H111.5C115.4 220.8 118.6 223.9 118.6 227.9V248.9C118.6 252.9 121.7 256 125.7 256H194.3C198.3 256 201.4 252.8 201.4 248.9V227.9L201.4 227.9zM119.1 24.4C115.5 26 112.7 24.2 112.7 20.2V-33.1C112.7 -37.1 115.8 -40.2 119.8 -40.2H200.3C204.2 -40.2 207.4 -37.1 207.4 -33.1V-23.7C207.4 -19.7 204.6 -15.3 201 -13.7L119.1 24.4L119.1 24.4z"></glyph><glyph path-name="bike" unicode="&#x55;" horiz-adv-x="320" d=" M61 118C27.8 118 0 91.4 0 57S26.6 -4 61 -4C94.2 -4 122 22.6 122 57C122.2 90.2 95.6 118 61 118zM61 13C37.1 13 17.2 32.9 17.2 58.1C17.2 82 37.1 101.9 62.3 101.9S106.1 82 106.1 56.8C104.8 33 85 13 61 13zM259 116.6C225.8 116.6 198 90 198 55.6S224.6 -5.4 259 -5.4S320 21.1 320 55.6C318.7 88.8 292.1 116.6 259 116.6zM257.6 11.8C233.7 11.8 213.8 31.7 213.8 56.9S233.7 100.7 258.9000000000001 100.7C282.8 100.7 302.7000000000001 80.8 302.7000000000001 55.6C301.5 30.4 281.6 11.8 257.6 11.8zM254.9 188.3H212.4C208.4 188.3 205.7 185.6 205.7 181.6V180.3L205.7 180.3C205.7 180.3 213.7 156.4 215 153.7C215 152.4 215 151 216.3000000000001 151H211.1000000000001L118.2000000000001 152.3C116.9000000000001 152.3 116.9000000000001 152.3 116.9000000000001 153.6C116.9000000000001 156.3 107.6000000000001 180.2 106.2000000000001 182.8C106.2000000000001 182.8 106.2000000000001 182.8 106.2000000000001 184.1C111.4000000000001 185.4 124.9000000000001 188.1 128.8000000000001 189.3C131.4 190.9 131.4 190.9 131.4 192.2C131.4 193.5 131.4 194.9 130.1 196.1C130.1 197.4 128.8 197.4 127.4 197.4C115.5 197.4 102.2 197.4 90.3 197.4H77C73 197.4 69 193.5 69 189.4C69 185.5 72.9 181.4 77 181.4H83.7C85 181.4 86.4 181.4 88.9 181.4L88.9 181.4L88.9 181.4L88.9 181.4L136.7 52.6L136.7 52.6C139.4 47.4 143.4 43.3 149.9 43.3H151.2C153.9 43.3 156.4 44.6 159.2 47.2L160.5 48.5C164.4 52.4 232.2 126.9 232.2 126.9L232.2 126.9C234.9 129.6 236.1 133.6 236.1 137.6C236.1 138.9 236.1 140.3 236.1 141.5C236.1 141.5 226.8 170.7 224.2 176.1H256.1C264.1 176.1 270.7 169.4 270.7 161.5S264 146.9 256.1 146.9C252.2 146.9 249.4 144.2 249.4 140.2S252.1 133.5 256.1 133.5C270.7 133.5 284 145.4 284 161.3C282.8 176.4 270.9 188.3 254.9 188.3zM207.1 126L155.2 70.2L147.2 62.2L143.3 71.5L122.1 135.3H203.1H216.3L207.1 126z"></glyph><glyph path-name="bluetooth" unicode="&#x56;" horiz-adv-x="320" d=" M244.4 159.5L148 256V128.9L95 181.8L75.6 162.7L142.3 96L75.6 29.3L95 10.2L148 63.1V-64L244.4 32.5L180.9 96L244.4 159.5zM175.1 190.3L205.7 159.6L175.1 128.6V190.3zM205.8 32.5L175.2 1.8V63.2L205.8 32.5z"></glyph><glyph path-name="calendar" unicode="&#x57;" horiz-adv-x="320" d=" M270.2 212V229.3C270.2 246.5 259.6 255.9 240.8 255.9C223.4 255.9 211.5 245.3 211.5 229.2V211.8H191.5V229.3C191.5 246.7 180.9 256 163.5 256S134 245.4 134 229.3V212H114V229.3C114.1 246.7 103.4 256 84.7 256C67.3 256 55.4 245.4 55.4 229.3V212H22V-64H298V212H270.2L270.2 212zM228.8 229.3C228.8 237.3 232.8 241.3 242.1 241.3C251.5000000000001 241.3 255.4000000000001 237.2 255.4000000000001 229.3V182.6C255.4000000000001 174.6 251.3000000000001 170.6 242.1 170.6C232.7 170.6 228.8 174.7 228.8 182.6V229.3zM151.5 229.3C151.5 237.3 155.6 241.3 164.8 241.3C174.2 241.3 178.1 237.2 178.1 229.3V182.6C178.1 174.6 174 170.6 164.8 170.6C155.4 170.6 151.5 174.7 151.5 182.6V229.3L151.5 229.3zM75.5 229.3C75.5 237.3 79.6 241.3 88.8 241.3C98.2 241.3 102.1 237.2 102.1 229.3V182.6C102.1 174.6 98.1 170.6 88.8 170.6C79.4 170.6 75.5 174.7 75.5 182.6V229.3zM279.5 -41.4H50.2V150.5H280.8V-41.4H279.5zM166.2 32C166.2 46.7 156.8 54.6 139.5 60L139.5 60C155.4 65.2 163.6 73.3 163.6 86.7S150.3 110.8 127.6 110.8C117 110.8 105 109.5 95.7 105.6L98.4 85.6C105.1 89.6 113.1 90.8 121 90.8C133 90.8 137 86.7 137 80.2C137 70.8 127.6 66.9 112.9 65.5V45.5C134.2 44.2 142.2 40.3 142.2 28.1C142.2 20.1 134.2 13.4 122.2 13.4C112.8 13.4 104.8 14.7 95.5 18.6L91.5 2.6C99.5 -0.1 108.9 -2.6 118.2 -2.6C144.9 -2.7 166.2 9.2 166.2 32zM206.1 81.3V-1.4H230.1V109.3H218.1L183.4 93.3L186.2 73.3L206.1 81.3z"></glyph><glyph path-name="calories" unicode="&#x58;" horiz-adv-x="320" d=" M200.6 162.7C200.6 194.6 208.6 225.3 239.3 256C239.3 256 238 256 236.6 256C227.2 256 214 253.3 199.2 248C164.6 233.3 130 194.7 130 106.6C130 106.6 90 135.9 110 190.6C79.3 158.8 56.7 112 56.7 49.3C56.7 49.3 56.7 -57.2999999999999 160.7 -64C163.4 -64 164.7 -64 167.4 -64H168.7C168.7 -64 168.7 -64 170 -64C243.3 -64 263.3 -17.3 263.3 25.3C264.7 80.1 200.6 114.8 200.6 162.7zM169.9 -31.9C88.5 -31.9 87.2 46.7 100.6 85.4C123.2 38.7 162 36.1 162 36.1C152.6 69.4 176.7 114.7 176.7 114.7C199.3 58.7 227.3 62.7 227.3 21.3C225.9 2.8 213.9 -31.9 169.9 -31.9z"></glyph><glyph path-name="coffee" unicode="&#x59;" horiz-adv-x="320" d=" M253.7 233.2V256H66.3V233.2H42.2V207.8H277.8V233.2H253.7zM68.9 79.2L78.3 5.6L86.3 -64H236.3L245.7 5.6L255.0000000000001 79.2L267.2000000000001 183.6H55.5L68.9 79.2zM233.7 79.2L224.3 5.6H95.7L86.3 79.2L233.7 79.2L233.7 79.2z"></glyph><glyph path-name="computer-desktop" unicode="&#x5a;" horiz-adv-x="320" d=" M313.6 235.9H6.4C2.8 235.9 0 233.1 0 229.5V2.1C0 -1.5 2.8 -4.3 6.4 -4.3H131.8V-22.8L103.7 -40.6C100.8 -42.5 101.2 -44 104.7 -44H216.2C219.8 -44 220.2 -42.5 217.2 -40.7L188.3 -22.6V-4.3H313.6C317.2000000000001 -4.3 320 -1.4999999999999 320 2.1000000000001V229.5C320 233.1 317.2 235.9 313.6 235.9zM293.3 60C293.3 56.4 290.5 53.6 286.9000000000001 53.6H33.2C29.6 53.6 26.8 56.4 26.8 60V202.8C26.8 206.4 29.6 209.2 33.2 209.2H286.9C290.5 209.2 293.3 206.4 293.3 202.8V60z"></glyph><glyph path-name="connect-iq" unicode="&#x5b;" horiz-adv-x="320" d=" M14.7 203.3L14.7 203.3C6.7 203.3 0 196.6 0 188.6V0.7C0 -7.3 6.7 -14 14.7 -14L14.7 -14C22.7 -14 29.4 -7.3 29.4 0.7V188.6C29.4 195.3 22.7 203.3 14.7 203.3zM231.9 62L231.9 62C226.6 56.7 226.6 46 231.9 40.7L293.2 -20.6C298.5 -25.9 309.2 -25.9 314.5 -20.6L314.5 -20.6C319.8 -15.3 319.8 -4.6 314.5 0.7L253.2 62C247.9 68.6 237.3 68.6 231.9 62zM229.3 8.6C228 9.9 225.3 11.3 224 9.9C216 7.2 208 5.9 198.7 5.9C149.4 5.9 108 45.9 108 95.2S148 184.5 198.7 184.5S289.3 144.5 289.3 95.2C289.3 85.9 288 77.9 285.3 69.9C285.3 67.2 285.3 66 286.6 64.6L301.3 49.9C304 47.2 309.3 47.2 310.6 51.2C315.9 64.5 319.9 80.5 319.9 96.5C319.9 163.2 265.2 216.4 198.7 216.4S77.4 163.3 77.4 96.6S132.1 -23.3 198.6 -23.3C214.6 -23.3 229.3 -20.6 242.5000000000001 -15.3C246.5000000000001 -14 247.8000000000001 -8.6 243.8000000000001 -6L229.3 8.6z"></glyph><glyph path-name="course-compact" unicode="&#x5c;" horiz-adv-x="320" d=" M274.8 195.6H43.8C19.9 195.6 0 175.7 0 151.7V41.5C0 17.6 19.9 -3.6 43.8 -3.6H276.2C300.1 -3.6 320 16.3 320 40.2V153C318.6 176.9 298.7 195.6 274.8 195.6zM238.9 60.1C228.2 53.4 215 54.9 207 62.8L181.8 49.5C172.5 44.3 165.9 42.8 160.6 42.8C155.4 42.8 151.3 45.5 148.6 46.8C143.4 52 137.9 62.7 148.6 85.3L160.6 113.1C165.8 126.3 165.8 134.3 163.3 135.7C162 137 156.6 137 146 131.8L120.8 118.6C123.5 109.3 119.5 98.7 110.1 92C98.2 84 83.5 86.8 75.5 98.7S70.3 125.3 82.2 133.3C92.9 140 106.1 138.5 114.1 130.6L139.2 143.7C157.9 154.4 168.4 150.4 173.8 146.4C179 141.2 184.5 130.5 173.8 107.9L162 80.1C156.8 66.9 156.8 58.9 159.3 57.5C160.6 56.2 166 56.2 176.6 61.4L201.8 74.6C199.1 83.9 203.1 94.5 212.5 101.2C224.5 109.2 239.1 106.4 247.1 94.5C253.6 82.7 250.9 68.1 238.9 60.1z"></glyph><glyph path-name="course-stats" unicode="&#x5d;" horiz-adv-x="320" d=" M239.8 -3.8C239.8 -14.8456949966159 248.7543050033842 -23.8 259.8 -23.8C270.8456949966159 -23.8 279.8 -14.8456949966159 279.8 -3.8C279.8 7.2456949966159 270.8456949966159 16.2 259.8 16.2C248.7543050033842 16.2 239.8 7.2456949966159 239.8 -3.8z M146.7 15.7V136.2L226.6 176.9L120.1 229.1V-10.5H93.4V12.5C69.6 7.8 53.5 -0.7 53.5 -10.5C53.5 -25.1 89.3 -37.1 133.4 -37.1C177.5 -37.1 213.3 -25.1 213.3 -10.5C213.3 2.7 184.5 13.6 146.7 15.7z"></glyph><glyph path-name="courses" unicode="&#x5e;" horiz-adv-x="320" d=" M312.6 92.6C299.3 112.6 271.3 117.9 249.9000000000001 104.6C233.9000000000001 93.9 228.6 75.3 231.2000000000001 57.9L185.9 33.9C167.2000000000001 23.2 156.6 24.6 155.2000000000001 27.2C152.5000000000001 29.9 151.2000000000001 43.2 160.5000000000001 67.2L181.8000000000001 117.9C199.1000000000001 157.9 191.1000000000001 177.9 180.5000000000001 185.9C171.2000000000001 193.9 153.8000000000001 200.6 120.5000000000001 181.9L75.3 158C60.6 171.3 36.6 174 19.3 160.7C-0.7 147.4 -6 119.4 7.3 99.4S48.6 74.1 70 87.4C84.7 98.1 91.3 116.7 88.7 134.1L134 158.1C154 168.8 163.3 167.4 164.7 164.8C167.4 162.1 168.7 148.8 159.4 124.8L138.1 74C120.8 34 128.8 14 138.1 6C143.4 2 150.1 -2 160.8 -2C170.1 -2 183.5 0.7 198.1 10L243.4 34C258.1 19.3 282.1 16.7 300.7 28.7C320.6 44.6 326 72.7 312.6 92.6z"></glyph><glyph path-name="courses2" unicode="&#x5f;" horiz-adv-x="320" d=" M173.4 -34.6L180.1 98.7C214.8 108.1 240 138.7 240 176C240 220 204 256 160 256S80 220 80 175.9C80 138.5 105.3 108 138.6 98.6L145.3 -36C120 -37.3 99.9 -42.7 99.9 -49.3C99.9 -57.3 126.6 -64 159.8 -64S219.7 -57.3 219.7 -49.3C220.1 -42.5 200.1 -37.2 173.4 -34.6zM149.4 193.5C144.2 180.2 132 173.5 120.1 177.5C109.5 181.5 104.2 194.9 108.1 208.2C113.3 221.5 125.5 228.2 137.4 224.2C148 220 153.4 206.7 149.4 193.5z"></glyph><glyph path-name="crash" unicode="&#x60;" horiz-adv-x="320" d=" M30.955 40.782C14.047 49.086 7.943 68.996 15.747 85.004S43.961 108.216 60.069 100.312C66.572 97.11 71.475 92.208 74.576 86.505L86.682 89.707C82.58 99.012 75.376 106.816 65.571 111.618C43.06 122.624 15.446 113.119 4.54 90.607S3.039 40.582 25.551 29.576C45.861 19.671 70.273 26.374 82.98 44.383L70.774 49.185C61.07 38.181 44.462 34.179 30.955 40.782z M90.685 72.899L78.579 70.098C78.579 68.297 78.379 66.396 77.979 64.595L89.585 60.293C90.585 64.494 90.885 68.696 90.685 72.899z M128.304 -5.641C132.106 -16.747 141.21 -22.549 153.517 -25.151C167.324 -27.952 177.529 -29.253 186.033 -27.952C186.633 -27.852 187.234 -27.552 187.834 -27.352C198.94 -23.55 206.944 -22.149 212.446 -10.944C217.949 0.3620000000001 218.349 12.8680000000001 214.547 23.873C213.747 26.074 212.846 28.275 211.746 30.376C207.344 38.68 200.44 45.684 191.436 50.086C189.135 51.187 186.834 52.087 184.432 52.787C184.032 48.485 183.632 44.1830000000001 183.331 39.881C184.231 39.581 185.132 39.181 186.032 38.78C202.94 30.576 209.044 10.566 201.24 -5.442C198.339 -11.4449999999999 195.537 -12.446 189.534 -14.547C178.829 -18.249 170.424 -17.949 158.318 -15.4469999999999C139.909 -11.7449999999999 133.806 7.4640000000001 141.71 23.5730000000001C146.412 33.1780000000001 155.617 39.5810000000001 165.722 41.4820000000001C166.122 45.7840000000001 166.522 50.0860000000001 166.823 54.4890000000001C151.615 52.8880000000001 137.508 43.7840000000001 130.405 29.1760000000001C124.902 17.871 124.502 5.365 128.304 -5.641z M167.424 -36.456C167.324 -38.557 172.627 -39.858 175.328 -39.658C178.029 -39.458 181.231 -38.758 183.032 -39.158C184.833 -39.658 187.334 -37.557 188.435 -35.056C189.536 -32.5550000000001 184.133 -28.953 180.731 -28.953S174.628 -29.653 171.927 -31.254C169.225 -32.854 167.724 -33.355 167.424 -36.456z M285.5830000000001 214.269C285.5830000000001 204.654 277.7890000000001 196.86 268.1740000000001 196.86S250.7650000000001 204.654 250.7650000000001 214.269S258.5590000000001 231.678 268.1740000000001 231.678S285.5830000000001 223.884 285.5830000000001 214.269z M311.296 184.354C311.296 184.354 288.184 179.852 281.681 178.351C277.879 180.252 265.773 189.957 260.67 192.258C251.065 195.76 244.962 199.762 235.457 199.862C225.852 197.061 208.443 165.945 208.443 165.945S183.731 154.739 178.628 155.44C173.625 156.04 129.503 160.142 122.7 160.743C109.093 161.744 105.391 144.835 124.501 142.434C131.304 141.934 165.922 136.731 165.922 136.731S182.53 133.729 196.637 134.93C211.544 136.431 220.849 139.332 222.95 140.533C237.257 149.137 252.165 172.149 253.966 174.65C254.266 175.05 254.666 175.15 255.067 174.95C257.268 173.849 274.377 164.845 278.079 163.344C280.48 162.444 283.282 162.844 286.8829999999999 163.844C293.286 165.545 308.594 169.047 313.096 170.447C323.402 173.249 321.701 186.355 311.296 184.354z M194.537 125.925C186.833 124.924 174.927 126.225 174.927 126.225L141.61 106.215C132.105 100.512 141.01 85.505 150.615 91.308C150.615 91.308 188.134 112.018 201.04 119.722C203.041 120.923 205.342 123.2240000000001 213.046 130.6270000000001C213.047 130.627 202.241 126.926 194.537 125.925z M178.429 87.206C174.727 87.506 171.425 84.705 171.125 80.903L170.725 75.9L117.999 89.607L124.317 122.73L130.405 121.523C133.106 120.723 137.008 121.423 137.509 123.124L137.609 123.324C137.909 125.125 136.709 127.526 134.007 128.226L110.895 135.63C108.194 136.33 105.392 134.83 104.692 132.128C103.992 129.427 105.492 126.625 108.194 125.925L110.998 125.369L104.692 92.408L42.661 76.1C42.561 76.1 42.461 76 42.361 76C40.66 75.6 39.059 74.499 38.159 72.898C36.258 69.696 37.359 65.494 40.56 63.593L98.889 40.381C101.891 39.28 104.992 39.781 107.293 40.481C108.394 40.881 169.324 58.49 169.324 58.49L164.922 8.665C164.622 4.963 167.423 1.661 171.225 1.361C174.727 0.861 178.028 3.762 178.329 7.464L184.732 79.9C185.032 83.604 182.231 86.906 178.429 87.206zM97.489 55.19L61.871 68.397L101.791 77.502L97.489 55.19zM111.396 55.09L115.498 76.201L151.716 66.796L111.396 55.09z"></glyph><glyph path-name="devices" unicode="&#x61;" horiz-adv-x="320" d=" M260.2 120.5L268.2 121.8L256.3 170.9L247 168.2C233.7 186.8 211.1 198.8 185.9 198.8H135.5C110.3 198.8 89 186.9 74.4 168.2L63.8 170.9L51.9 121.8L59.9 120.5V75.3L51.9 74L63.8 24.9L74.4 27.6C87.6 9 110.2 -3 134 -3H184.5C208.5 -3 231 8.9 244.2 27.6L254.8 24.9L266.8 74.1L258.8 75.4L260.2 120.5L260.2 120.5zM225.8 124.5V72.8C225.8 50.3 207.2 31.6 184.6 31.6H134.2C111.7 31.6 93 50.2 93 72.8V124.5C93 147 111.6 165.7 134.2 165.7H184.6C207.1 165.7 225.8 147.1 225.8 124.5zM184.6 212.1C196.5 212.1 208.6 209.4 219.1 205.4C208.5 225.3 203.1 237.2 203.1 242.6L203.1 242.6L203.1 242.6C203.1 249.3 197.8 255.9 189.8 255.9C189.8 255.9 172.5 251.9 158 251.9S128.8 254.6 128.8 254.6C122.1 254.6 115.5 249.4 115.5 241.3L115.5 241.3C115.5 236.1 110.3 224 99.5 204.1C110.1 208.1 122 210.8 134 210.8L184.6 212.1L184.6 212.1zM134.1 -14.9C122.2 -14.9 110.1 -12.2 98.2 -6.9C110.1 -30.9 115.5 -45.4 115.5 -50.8L115.5 -50.8L115.5 -50.8C115.5 -57.4999999999999 120.7 -64.1 128.8 -64.1C128.8 -64.1 146.1 -64.1 160.6 -64.1C175.2 -64.1 189.8 -64.1 189.8 -64.1C196.5 -64.1 200.4 -57.4 203.1 -50.8C204.4 -44.1 203.1 -50.8 203.1 -50.8C204.4 -45.6 208.3 -30.9 220.4 -6.9C209.8 -12.1 197.9 -14.9 185.9 -14.9H134.1L134.1 -14.9z"></glyph><glyph path-name="early-morning" unicode="&#x62;" horiz-adv-x="320" d=" M208 91.4C157.3 118.1 94.7 98.1 68 47.4C64 39.4 61.3 31.4 58.7 23.4C58.7 23.4 116 28.7 158.7 28.7S261.5 23.4 261.5 23.4C254.7 51.4 236 76.7 208 91.4zM14.7 96.7L0 69.9L38.7 48.6L54.8 77.9L14.7 96.7zM320 75.4L304 101.9L265.3 79.3L282.7 50L320 75.4zM233.3 159.4L204 168.6L189.3 127.4L221.3 116.7L233.3 159.4zM112 168.6L84 156.7L100 115.3L130.7 127.4L112 168.6z"></glyph><glyph path-name="evening" unicode="&#x63;" horiz-adv-x="320" d=" M169.8 76.9C136.4 11.5 86.9 -35.3 40.2 -51.4C123.1 -84.7999999999999 219.3 -50.1 260.7000000000001 30.1S274 209.2 199.2 256C213.9 209.2 204.5 141.1 169.8 76.9z"></glyph><glyph path-name="eye" unicode="&#x64;" horiz-adv-x="320" d=" M160 184.1C73.3 184.1 0 97.4 0 97.4V94.7C0 94.7 73.3 8 160 8S320 94.8 320 94.8V97.5C320 96.1 246.7 184.1 160 184.1zM160 40.1C130.7 40.1 106.7 64.1 106.7 93.4S130.7 146.7 160 146.7S213.3 122.7 213.3 93.4S189.3 40.1 160 40.1zM160 118.8C146.7 118.8 136 108.1 136 94.8S146.7 70.8 160 70.8S184 81.5 184 94.8S173.3 118.8 160 118.8z"></glyph><glyph path-name="floors-climbed" unicode="&#x65;" horiz-adv-x="320" d=" M279.2 40.5H224.4V16.1H149V-10.1H74V-36.5H40.8V-64H99.2V-38.8H173.9V-14.5H249.3V12H279.2V40.5zM140.3 256C153.555 256 164.3 245.255 164.3 232S153.555 208 140.3 208S116.3 218.745 116.3 232S127.045 256 140.3 256zM113.2 94.8C113.1 87.4 107.4 43.6 96.7 16.9C95.5 13.3 94.7 10.2 95.2 8.3C95.9 2.8 99.1 -0.1 104.5 -1.5C109.7 -2.7 114.8 0 117.9 5.9C124.2 19.9 124.7 30.2 129 45.5C131.3 53.9 134.8 67 138.8 79.4C129.1 82.2 121.1 85.7 113.2 94.8zM215 146.1C193.5 152.7 180.6 152.2 180.6 152.2S151.5 196.9 144.8 198.6C138 200.5 123.8 201.9 116.1 197.3C109.3 193.8 79.7 159.3 78.7 153.6C77.5 148.1 80.4 111.1 81.6 100.6C82.3 91 99.7 90.3 99.2 103.9C98.5 124 96.9 143.1 96.9 143.1L116.5 163L114.2 124C113.3 111.3 114.9 101.6 130.9 92.6C141.2 87.4 164.4 81.7 174.3 77.5C176.3 65.1 182.7 51.3 185.4 39.8C189 28 194.1 23.5 202.1 24.2C208.1 25.7 210 30 210.4 37.9C210.1 47.7 205.3 63.5 203.3 71.5C200.7 81.5 201.3 92 189 100C175.5 107.6 167.9 108.7 155.2 115C155.2 115.1 155.2 115.1 155.2 115.1L155.2 115.1L155.3 115.8C155.7 119.4 156 122.5 156.5 125.7L158.8 146.5C158.8 146.5 165.1 136 170.9 133.8C176.6 131.8 190.8 130.2 209.8 126.4C223.5 124.2 229.8 141.6 215 146.1z"></glyph><glyph path-name="gear" unicode="&#x66;" horiz-adv-x="320" d=" M320 115.9V79C320 75 316 69.8 312.1 68.4L264.6 59.2C260.7000000000001 57.9 258 55.2 260.7000000000001 51.3L288.3000000000001 10.5C291.0000000000001 6.6 289.6000000000001 -0.1 287.0000000000001 -2.6L260.6000000000001 -29.1C256.6000000000001 -33.1 251.4000000000001 -33.1 247.5000000000001 -30.4L206.7 -4C202.7 -1.3 198.8 -2.7 197.5 -8L188.3 -55.5C187 -59.5 183.1 -63.4 177.7 -63.4H140.9C136.9 -63.4 131.7000000000001 -59.5 130.3000000000001 -55.5L121.1 -8C119.8000000000001 -4 115.9 -1.4 111.9 -4L72.3 -30.4C68.4 -33.1 61.7 -33.1 59.2 -29.1L32.9 -2.7C28.9 1.3 28.9 6.5 31.6 10.4L59.3 51.2C62 55.1 60.6 59.1 55.4 59.1L7.9 68.3C4 69.6 0 73.5 0 78.9V115.8C0 119.7 4 125 7.9 126.4L55.4 135.6C59.3 136.9 62 140.8 59.3 144.8L31.6 185.6C28.9 189.5 30.3 194.8 32.9 198.7L59.1 225.2C63 229.1 68.3 229.1 72.2 226.5L111.8 198.8C115.7 196.1 119.7 197.5 121 202.7L130.2 250.1C134.1 252.8 139.4 255.3 143.3 255.3H180.2C184.2 255.3 189.4 251.3 190.8 247.4L200 199.9C201.3 195.9 205.2 193.3 209.2 195.9L250 223.8C254 226.5 259.2 225.1 263.1 222.5L289.7000000000001 196.2C293.7000000000001 192.3 293.7000000000001 187 291.0000000000001 183.1L263.3000000000001 142.3C260.6000000000001 138.4 262.0000000000001 134.4 267.3000000000001 133.1L314.8000000000001 123.9C316 125.1 320 121.1 320 115.9zM218.5 97.4C218.5 129 193.5 154 161.9 154S105.3 127.6 105.3 97.4S130.3 40.8 161.9 40.8S218.5 65.8 218.5 97.4z"></glyph><glyph path-name="goals" unicode="&#x67;" horiz-adv-x="320" d=" M160 256C71.7 256 0 184.3 0 96S71.7 -64 160 -64S320 7.7 320 96S248.4 256 160 256zM160 -15.2C97.5 -15.2 48.8 35 48.8 96C48.8 158.5 99 207.2 160 207.2C222.5 207.2 271.2 157 271.2 96S222.6 -15.2 160 -15.2zM160 144.8C134.1 144.8 112.8 123.4 112.8 97.6S134 50.2 160 50.2S207.2 71.6 207.2 97.4S186 144.8 160 144.8z"></glyph><glyph path-name="golf-ball" unicode="&#x68;" horiz-adv-x="320" d=" M320 96.1C320.4 172.4 262.9 240.4 187.7 253.5C107.5 267.5 27.4 217 5.8 138.5C-14.2 65.9 19.7 -7.7 83.6 -44.3C147 -83.3 236.3 -61 282.4 -6.4C306.4 22.1 320 58.9 320 96.1L320 96.1zM160.1 234.1C192 234.1 223.2 222.8 247.8 202.5C260.4000000000001 192.1 271.1 179.5 279.3 165.5C287.4000000000001 151.6 282.3 133.6 278 118.6C261.2 59.1 209.8 13.5 148.6 4.1C114 -1.2 78 4.9 47.3 21.8C32.8 29.8 27 57.3 24.3 72.6C21.3 89.9 21.6 107.9 25.2 125.1C38.6 187.9 95.9 234.1 160.1 234.1z"></glyph><glyph path-name="golf-club" unicode="&#x69;" horiz-adv-x="320" d=" M244.9 111C261.1 144 277.8 176 292.6 208.9C299.5 224.2 303 225.8 314.6 217.1C318.3 214.3 320.1 205.8 319.1 200.7C317.5 192.9 317.9000000000001 185.9 314.7000000000001 178.4C303.6 152.2 286.8000000000001 127.3 282.9000000000001 97.5C270.9000000000001 6.3 216.2000000000001 -39.7 113.2000000000001 -28.7C82.8 -25.5 54.4000000000001 -15.5 30.3 4.2C-15.1 41.3 -7.3 94.4 46.8 117C99.6 139.1 173.1 137.5 244.9 111zM68.3 98.9C34.7 81.7 25.6 45.7 54.2 21.2C90.2 -9.6 176.6 -16.5 212.3 14.7C239.8 38.8 242.8 81.6 209.1 95.7C189.4 103.9 101.8 116 68.3 98.9zM64.3 71.2C105.1 71.9 159 71.9 199.8 71.2C204.8 71.1 213 59.4 212.1 57.5C163.4 57.5 101.7 57.5 53 57.5C51.8 59.4 59.2 71.1 64.3 71.2zM58.6 42.8C103.5 42.8 161.4 42.8 206.3 42.8C207.1 41.3 195.8 29 189.2 28.8C156 27.8 109.6 27.9 76.4 28.8C69.6 29 57.8 40.7 58.6 42.8z"></glyph><glyph path-name="golf-leaderboards" unicode="&#x6a;" horiz-adv-x="320" d=" M309.403 240.125L242.88 224.834L239.57 224.065C239.379 227.666 239.133 231.311 238.832 235H82.398C82.084 231.215 81.831 227.478 81.64 223.788L77.11 224.813L10.597 240.125L0 242.554L0.42 231.711C2.172 185.685 16.367 154.417 36.833 130.763C57.002 107.396 82.859 91.819 108.87 76.518L113.39 84.225C121.779 71.215 131.763 59.305 143.111 48.775H137.351C131.227 48.776 126.261 43.812 126.261 37.688C126.26 31.564 131.224 26.598 137.348 26.598C137.349 26.598 137.35 26.598 137.351 26.598H141.01C139.032 -0.571 130.3 -20.545 115.85 -34.504H96.326L91.335 -50.553H230.602L225.59 -34.504H205.37C190.92 -20.566 182.188 -0.561 180.21 26.598H183.418C189.542 26.597 194.508 31.561 194.508 37.685C194.509 43.809 189.545 48.775 183.421 48.775C183.42 48.775 183.419 48.775 183.418 48.775H178.089C189.137 59.037 198.894 70.608 207.144 83.231L211.079 76.518C237.09 91.891 262.957 107.387 283.116 130.763C303.613 154.468 317.746 185.685 319.529 231.721L320 242.554L309.403 240.125zM49.418 141.647C32.918 160.801 20.968 185.695 17.75 221.391L63.397 210.897L58.54 200.32L73.646 193.361L81.199 209.759C80.717 166.346 88.926 129.195 105.386 97.999C84.755 110.348 64.914 123.671 49.418 141.647zM270.582 141.647C255.537 124.225 236.403 111.168 216.419 99.034C232.161 129.359 240.165 165.25 240.052 207.002L246.355 193.361L261.461 200.32L256.5830000000001 210.896L302.25 221.39C299.032 185.695 287.082 160.801 270.582 141.647z"></glyph><glyph path-name="handheld" unicode="&#x6b;" horiz-adv-x="320" d=" M201.4 256H118.7C85.2 256 57.7 228.5 57.7 195V-3C57.7 -36.5 85.2 -64 118.7 -64H201.4C234.9 -64 262.4 -36.6 262.4 -3V195C262.3 228.4 234.9 256 201.4 256zM150.4 -32.7H118.2C102.9 -32.7 90.3 -18.2 90.3 -0.4H150.3L150.4 -32.7L150.4 -32.7zM201.8 -32.7H169.6V-0.4H229.6C229.7 -18.2 217.1 -32.7 201.8 -32.7zM229.7 195.6V30.4H90.2V195.6H229.7z"></glyph><glyph path-name="heart-inverted" unicode="&#x6c;" horiz-adv-x="320" d=" M232 242.8C204.2 242.8 177.4 229.8 160 209.4C142.6 229.9 115.8 242.8 88 242.8C38.7 242.8 0 204.1 0 154.8C0 94.3 54.4 45 136.8 -29.8L160 -50.8L183.2 -29.7C265.6 45 320 94.3 320 154.8C320 204.1 281.3 242.8 232 242.8zM161.6 -6L160 -7.6L158.4 -6C82.2 63 32 108.6 32 154.8C32 186.8 56 210.8 88 210.8C110.8 210.8 133 197.2 143 177.9C144.5 174.9 147.7 173.1 151 173.1H169.2C172.6 173.1 175.7 174.9 177.2 177.9C187 197.3 209.2 210.8 232 210.8C264 210.8 288 186.8 288 154.8C288 108.6 237.8 63 161.6 -6z"></glyph><glyph path-name="heart" unicode="&#x6d;" horiz-adv-x="320" d=" M160 -50.8L136.8 -29.7C54.4 45 0 94.3 0 154.8C0 204.1 38.7 242.8 88 242.8C115.8 242.8 142.6 229.8 160 209.4C177.4 229.9 204.2 242.8 232 242.8C281.3 242.8 320 204.1 320 154.8C320 94.3 265.6 45 183.2 -29.8L160 -50.8z"></glyph><glyph path-name="help-inverted" unicode="&#x6e;" horiz-adv-x="320" d=" M160 256C71.7 256 0 184.3 0 96S71.7 -64 160 -64S320 7.7 320 96S248.4 256 160 256zM170.7 15.2C167.6 12.1 163.1 10.7 158.4 10.7C153.8 10.7 149.3 12.2 146.1 15.2C143 18.3 141.6 22.8 141.6 27.5C141.6 32.1 143.1 36.6 146.1 39.8C149.2 42.9 153.7 44.3 158.4 44.3C163 44.3 167.5 42.8 170.7 39.8C173.8 36.7 175.2 32.2 175.2 27.5C176.8 22.8 173.7 18.3 170.7 15.2zM213.4 121.9C210.3 117.4 207.4 112.8 204.3 109.6C201.2 106.5 193.6 100.5 184.5 91.3C181.4 88.2 180 86.8 178.5 85.3C177 82.2 175.4 80.7 175.4 79.3C173.9 77.8 173.9 76.2 173.9 74.8C173.9 73.3 172.4 70.2 172.4 67.2C170.9 59.6 166.4 54.9 158.7 54.9C154.1 54.9 151.1 56.4 148 59.4C144.9 62.5 143.5 65.4 143.5 71.7S145 84 146.6 88.5C148.1 93 151.1 97.6 154.2 100.8C157.3 103.9 161.8 108.4 167.9 113.1C172.4 117.6 177 120.7 178.6 122.2S183.2 126.7 184.6 129.8C186.1 132.9 186.1 135.8 186.1 138.9C186.1 144.9 183 149.6 180.1 154.1C175.6 158.6 169.4 160.1 161.8 160.1C152.7 160.1 146.6 158.6 143.5 154.1C139 149.6 135.9 143.4 132.8 135.8C129.7 126.7 125.2 123.5 117.6 123.5C113.1 123.5 110 125 106.9 128C103.8 131.1 102.4 134 102.4 137.1C102.4 144.7 105.5 152.3 110 158.5C114.6 166.1 122.3 172.2 131.4 176.8C140.5 181.4 151.2 184.4 163.4 184.4C174.1 184.4 184.8 182.9 192.3 178.4C201.4 173.9 207.5 169.3 212.1 161.6C216.7 154 219.7 146.4 219.7 138.8C217.9 132.6 216.3 126.5 213.4 121.9z"></glyph><glyph path-name="intensity-minutes" unicode="&#x6f;" horiz-adv-x="320" d=" M296.3 142.9L309.6 156.2L297 168.9L283.5 155.4C270.3 166 254.3 173.2 236.8 175.8L236.8 175.8V196.1H251V210.4H193.8V196.1H208.1V175.8L208.1 175.8C190.6 173.2 174.6 166 161.4 155.4L147.9 168.9L135.2000000000001 156.2L148.5000000000001 142.9C133.7000000000001 125.8 124.8000000000001 103.5 124.8000000000001 79.2C124.8000000000001 25.3 168.5000000000001 -18.4 222.4 -18.4S320 25.3 320 79.2C320 103.6 311.1 125.9 296.3 142.9M222.4 8.4C183.3 8.4 151.6 40.1 151.6 79.2S183.3 150 222.4 150S293.2000000000001 118.3 293.2000000000001 79.2S261.5 8.4 222.4 8.4M216.3 75.5L228.6 87.8L269 47.4L256.7 35.1L216.3 75.5zM113.9 129H48.4C44.1 129 40.6 132.5 40.6 136.8S44.1 144.6 48.4 144.6H113.9C118.2 144.6 121.7 141.1 121.7 136.8S118.2 129 113.9 129M101.7 76.8H28.1C23.8 76.8 20.3 80.3 20.3 84.6S23.8 92.4 28.1 92.4H101.7C106 92.4 109.5 88.9 109.5 84.6S106 76.8 101.7 76.8M109.8 24.6H7.8C3.5 24.6 0 28.1 0 32.4S3.5 40.2 7.8 40.2H109.8C114.1 40.2 117.6 36.7 117.6 32.4C117.6 28.1 114.1 24.6 109.8 24.6"></glyph><glyph path-name="kilograms" unicode="&#x70;" horiz-adv-x="320" d=" M21.1 243.8V-48.5C21.1 -53.3 22 -57.1 23.7 -60.2C25.4 -62.7 27.6 -64 30.1 -64C32.3 -64 34.4 -62.7 36.1 -59.8C38 -56.8 39 -52.8 39 -47.7V55.8L69.9 111L133.5 -57.6C134.6 -60.9 136.4 -62.9 138.7 -63.4C140.8 -64.2 143 -63.7 145.1 -61.8C147.2 -60.1 148.8 -57.7 149.5 -54.7C150.3 -51 150 -47.5 148.7 -43.9L82.2 132.6L140 236.8C141.9 240.1 142.8 243.5 142.6 246.7C142.4 249.7 141.4 252.1 139.7 253.8C138 255.7 136 256.4 133.9 255.8C131.4 255.2 129.3 253.4 127.8 250L39 91.8V243.8C39 247.7 38 250.8 36.1 252.9C34.4 254.8 32.3 255.8 30.1 255.8C27.6 256.1 25.4 255.2 23.7 253.4C22 251.2 21.1 248.1 21.1 243.8zM239.5 255.9C218.9 255.9 202.2 241.5 189.2 212.8C176.7 183.9 170.4 146.5 170.4 100.7C170.4 53.5 176.2 14.9 187.7 -15.7C200.1 -47.6 216.6 -63.5000000000001 237.4 -63.5000000000001C248.4 -63.5000000000001 257.8 -58.7 265.7 -49.0000000000001C272.1 -41.2 277.2 -30.4 281 -16.5000000000001V-45.2C281 -48.9 281.9 -51.7 283.6 -53.9C285.3 -55.8 287.5 -56.6 290 -56.3C292.2 -56.3 294.3 -55.3 296 -53.4C297.9 -51.2 298.9 -48.4 298.9 -45.1V87.8C298.9 93.6 298.3 97.5 297.2 99.4C295.9 101.3 293.2 102.3 289.4 102.3H247.2C244.2 102.3 241.8 101.2 240.3 99S238 94.1 238 91.1C238.2 88.1 239 85.4 240.6 83.3C242.1 80.9 244.4 79.5 247.2 79.5H281.1C281.1 39 276.9 8.5 268.6 -12.3C261.1 -31.2 250.6 -40.6 237.4 -40.6C223.1 -40.6 211.2 -27.2 201.8 -0.3C192.8 26.4 188.2 59.3 188.2 98.6C188.2 141.5 193.4 175.4 203.8 200.4C212.9 222.3 223.9 233.2 236.8 233.2C247.2 233.2 255.7 228.1 262.3 217.8C269.2 206.7 273.9 189.9 276.2 167.1C276.5999999999999 163 277.8 159.9 280 158C281.8999999999999 156.1 284.2 155.4 286.7 156S291.3 158.2 292.8 161C294.7 164 295.6 167.8 295.4 172.3C294.1 196.1 288.8 215.6 279.8 230.8C269.6 247.5 256.1 255.9 239.5 255.9z"></glyph><glyph path-name="morning" unicode="&#x71;" horiz-adv-x="320" d=" M246.7 44C246.7 92 208 130.7 160 130.7S73.3 92 73.3 44C73.3 25.3 78.6 8 89.3 -5.3C89.3 -5.3 124 -12 160 -12S230.8 -5.4 230.8 -5.4C240 7.9 246.7 25.3 246.7 44zM174.7 204H146.7L145.3 164H176L174.7 204zM280 58.7V29.3L320 30.7V58.7H280zM40 58.7H0V30.7L40 29.3V58.7zM282.7 146.7L264 166.6L234.7 138.7L256 117.2L282.7 146.7zM85.3 140L57.3 166.6L37.3 148L65.3 118.7L85.3 140z"></glyph><glyph path-name="move" unicode="&#x72;" horiz-adv-x="320" d=" M320 96L260 156V116H180.1V196H220L160 256L100 196H140V116H60V154.7L0 96L60 37.3V76H140V-0.4H100L160 -64L221.3 -0.4H180.1V76H260V36L320 96z"></glyph><glyph path-name="options" unicode="&#x73;" horiz-adv-x="320" d=" M81.4 113.6V208.1H56.5V113.6C34.5 106.5 22.4 83 29.5 61C33.6 48.2 43.7 38.1 56.5 34V-15.8H81.4V34C103.5 40.9 115.7 64.4 108.8 86.4C104.7 99.5 94.5 109.7 81.4 113.8V113.6zM68.9 52.8C57.4 52.8 48.2 62.1 48.2 73.5C48.2 85 57.5 94.2 68.9 94.2S89.6 84.9 89.6 73.5C89.7 62.1 80.4 52.8 68.9 52.8zM172.3 177.9V208.1H147.4V177.9C125.3 171 113.1 147.5 120 125.5C124.1 112.4 134.3 102.2 147.4 98.1V-15.7H172.3V98C194.4 104.9 206.6 128.4 199.7 150.4C195.6 163.5 185.4 173.8 172.3 177.9zM159.8 116.9C148.3 116.9 139.1 126.2 139.1 137.6S148.4 158.3 159.8 158.3C171.3 158.3 180.5 149 180.5 137.6S171.3 116.9 159.8 116.9zM263.2 90.5V208.1H238.3V90.5C216.2 83.6 204 60.1 210.9 38.1C215 25 225.2 14.8 238.3 10.7V-15.7H263.2V10.7C285.3 17.6 297.5 41.1 290.6 63.1C286.5 76.1 276.3 86.4 263.2 90.5zM250.7 29.8C239.2 29.8 230 39.1 230 50.5C230 62 239.3 71.2 250.7 71.2C262.1 71.2 271.4 61.9 271.4 50.5C271.5 39.1 262.2 29.8 250.7 29.8z"></glyph><glyph path-name="pencil-with-note" unicode="&#x74;" horiz-adv-x="320" d=" M241.3 2.7C241.3 -4 236 -9.3 229.3 -9.3H45.3C38.6 -9.3 33.3 -4 33.3 2.7V186.7C33.3 193.4 38.6 198.7 45.3 198.7H204L237.3 232C234.6 232 232 233.3 228 233.3H45.3C20 233.3 0 213.3 0 188V4C0 -21.3 20 -41.3 45.3 -41.3H229.3C254.6 -41.3 274.6 -21.3 274.6 4V105.3L240 70.6L241.3 2.7zM114.7 26.6L188 50.6L320 182.6L270.7 231.9L138.7 99.9L114.7 26.6zM182.7 59.9L133.4 45.2L149.4 94.5L182.7 59.9z"></glyph><glyph path-name="people-1" unicode="&#x75;" horiz-adv-x="320" d=" M278.6 11C257.4000000000001 20.3 233.5000000000001 37.6 188.3 44.2C201.5 54.9 208.2 76.1 218.8 105.2V106.5C221.5 106.5 224 106.5 225.5 107.8C230.7 111.7 233.5 129 234.8 138.3C234.8 151.5 228.1 150.2 228.1 150.2L228.1 150.2C228.1 151.5 228.1 152.9 228.1 152.9C228.1 164.8 230.8 184.8 226.8 196.7C221.6 214.1 215 227.4 203 232.6C189.7 238 167.1 255.2 160.5 255.2C152.5 255.2 128.6 238 115.4 230C104.7 224.7 96.8 211.4 92.8 194.2C90.1 183.5 91.5 163.7 91.5 150.4C91.5 149.1 91.5 147.7 91.5 147.7L91.5 147.7C91.5 147.7 84.8 149 84.8 135.8C84.8 126.5 88.7 109.2 94.1 105.3C95.4 104 99.3 104 100.8 104V102.7C112.7 73.6 118 52.2 131.3 41.7C87.6 36.5 63.7 17.8 42.4 8.5C0 -10.2 0 -31.3 0 -31.3V-63.2H319.7V-28.7C321 -28.7 319.7 -7.6 278.6 11z"></glyph><glyph path-name="people-2" unicode="&#x76;" horiz-adv-x="320" d=" M319.9 14.2C319.9 14.2 319.9 26.2 294.6 38.2C284 43.4 270.6 44.9 249.3 48.8C248 50.1 245.3 59.4 242.6 68.8L246.7 66.1C248 66.1 249.4 66.1 250.7 66.1S261.3 68.8 265.4 68.8C266.7 68.8 268.1 68.8 268.1 68.8S269.4 68.8 270.8 68.8C270.8 70.1 270.8 70.1 270.8 71.5L266.8 79.5C266.8 79.5 270.8 84.7 273.5 83.5C276.2 82.2 280.2 84.8 280.2 84.8C282.8999999999999 108.8 286.8999999999999 159.4 261.5999999999999 178.1C252.2999999999999 184.8 245.5999999999999 187.4 238.9999999999999 187.4C232.3 187.4 226.9999999999999 184.7 224.2999999999999 182.1C220.1999999999999 184.8 214.9999999999999 187.4 208.2999999999999 187.4C201.6999999999999 187.4 194.9999999999999 184.7 185.6999999999999 178.1C160.3999999999999 159.5 161.6999999999999 110.2 164.3999999999999 86.1C164.3999999999999 86.1 165.6999999999999 87.4 169.5999999999999 83.4C173.5999999999999 79.4 178.8999999999999 79.4 178.8999999999999 79.4L176.1999999999999 67.4L176.1999999999999 67.4C177.5 67.4 178.8999999999999 67.4 180.2999999999999 68.7H181.5999999999999C185.6999999999999 68.7 189.5999999999999 67.4 190.9 67.4S193.5999999999999 67.4 194.9 67.4C196.3 67.4 202.9 70.1 204.2 70.1C202.9 64.9 200.2 54.1 197.5 50.1C194.8 50.1 192.3 48.8 189.5 48.8C204.2 38.2 205.5 27.4999999999999 205.5 24.8V3.4999999999999L205.5 3.4999999999999H320L319.9 14.2L319.9 14.2zM168.1 47.4C156.1 52.6 140.1 63.3 113.5 67.4C121.5 74.1 125.5 86 132.1 103.4C132.1 103.4 132.1 103.4 132.1 104.7H133.4C134.7 104.7 134.7 104.7 136.1 104.7C138.8 106 141.3 118 141.3 123.3C141.3 130 138.6 130 137.3 130L137.3 130L137.3 130V131.3C137.3 138 138.6 151.3 137.3 158C134.6 168.6 134.6 172.7 129.3 178C121.3 186 110.7 188.6 106.7 188.6C104 188.6 94.7 191.3 86.7 191.3C84 191.3 82.7 191.3 80 190C70.7 187.3 76 178 69.4 178C61.4 178 58.8 167.4 54.7 156.7C53.4 150 54.7 138.1 54.7 130V128.7L54.7 128.7L54.7 128.7C53.4 128.7 50.6 128.7 50.6 122C50.6 116.8000000000001 53.3 106.1 55.8 103.4C57.1 103.4 57.1 103.4 58.5 103.4H59.8C59.8 103.4 59.8 103.4 59.8 102.1C66.5 84.7 70.4 71.4 78.4 66.1C51.7 62 37.1 51.4 25.2 46.1C0 34.1 0 22 0 22V0.7H193.2V22C193.5 23.5 193.5 35.5 168.1 47.4z"></glyph><glyph path-name="people-3" unicode="&#x77;" horiz-adv-x="320" d=" M320 32.1C320 32.1 320 40.1 304 46.8C296 50.8 285.3 58.8 268 62.8C272.1 68 276 74.8 278.6 82.8C279.9000000000001 88 279.9000000000001 92.2 279.9000000000001 98.7C279.9000000000001 102.8 281.2000000000001 110.7 279.9000000000001 114.7C275.8 128 266.6 132.1 255.9000000000001 132.1C245.3000000000001 132.1 234.6 128 231.9000000000001 114.7C230.6 110.6 231.9000000000001 104.1 231.9000000000001 98.7C231.9000000000001 92 231.9000000000001 88.1 233.2000000000001 82.8C235.9000000000001 76.1 238.4000000000001 69.5 242.6000000000001 65.4C261.3000000000001 53.4 263.9000000000001 41.4 263.9000000000001 37.4L263.9000000000001 37.4L263.9000000000001 37.4V18.7L263.9000000000001 18.7H319.8V32L320 32.1L320 32.1zM57.5 37.3L57.5 37.3C57.5 41.3 58.8 53.3 77.5 65.3C81.5 69.3 84.2 75.9 86.9 84C88.2 89.2 88.2 93.4 88.2 100C88.2 104 89.5 112 88.2 115.9C84.2 129.2 74.9 133.3 64.2 133.3C53.6 133.3 42.9 129.3 40.2 115.9C38.9 111.9 40.2 105.3 40.2 100C40.2 93.3 40.2 89.4 41.5 84C45.6 74.6 48.2 68 52.1 64C34.7 61.3 24.1 52 16.1 48C0.1 40 0.1 32 0.1 32V18.7H57.5L57.5 37.3L57.5 37.3L57.5 37.3zM226.8 57.3C216.2 62.5 200.1 74.7 177.5 78.6C184.2 85.3 188.1 94.6 192.2 106.6C194.9 113.3 194.9 119.9 194.9 127.9C194.9 134.6 196.2 143.9 194.9 149.2000000000001C189.7 167.9 176.2 173.2000000000001 161.7 173.2000000000001C147 173.2000000000001 132.4 168 127 149.2000000000001C125.7 143.9 127 134.5 127 127.9C127 119.9 127 113.2000000000001 129.7 106.6C134.9 94.6 139.1 85.3 144.4 78.6C121.8 74.6 105.7 62.6 95.1 57.3C73.8 47.9 72.5 37.3 72.5 37.3V18.6H248.5V37.3C248.1 37.3 248.1 48 226.8 57.3z"></glyph><glyph path-name="people-4" unicode="&#x78;" horiz-adv-x="320" d=" M189.3 202.2C190.6 199.5 190.6 195.5 192 191.5C194.7 182.1 194.7 168.8 193.3 158.2C193.3 156.9 193.3 154.2 193.3 152.9C197.3 148.9 200 142.2 200 134.2C200 128.9 198.7 122.2 197.3 115.5C194.6 104.8 190.6 99.4 185.3 95.5C184 94.2 182.6 94.2 181.2 94.2C179.9 92.9 179.9 90.1 178.5 88.9C174.5 76.9 170.5 67.5 165.2 59.5C195.9 50.1 210.7 30.1 226.7 10.1C250.8 -21.9 257.4000000000001 -41.9 258.7000000000001 -41.9L260.0000000000001 -45.9H320.0000000000001C320.0000000000001 -45.9 309.3000000000001 -16.5000000000001 302.6000000000001 -5.8C295.9000000000001 4.9 279.9000000000001 22.3 261.2000000000001 31.6C247.9000000000001 38.2 234.6000000000001 55.6 234.6000000000001 55.6S249.3000000000001 51.6 272.0000000000001 54.3C294.7000000000001 55.6 302.7000000000001 58.3 302.7000000000001 58.3S280.1 77 272 107.6C264 138.3 274.7 179.8 240 205.1C228 214.5 217.3 217.1 209.3 217.1C199.9 217.1 193.2 213 187.9 209.1L187.9 209.1C187.9 204.8 187.9 203.5 189.3 202.2zM135.9 49.9C147.9 59.3 153.3 79.3 164 106V107.3C165.3 107.3 165.3 107.3 166.7 107.3C168 107.3 169.4 107.3 170.8 108.6C176.1 111.3 178.8 128.6 178.8 136.7C178.8 147.4 174.8 147.4 173.5 147.4L173.5 147.4L173.5 147.4C173.5 148.7 173.5 148.7 173.5 150.1C173.5 160.8 176.2 179.5 172.2 190.2C168.1 204.9 169.5 210.2 161.5 218.3C150.8 230.3 133.4 235.7 126.8 235.7C122.8 235.7 109.4 241.0000000000001 96.1 241.0000000000001C92.1 241.0000000000001 89.4 241.0000000000001 85.4 239.7C72 235.5 80 222.1 69.3 222.1C57.3 222.1 51.9 204.7 47.9 188.8C45.2 178.1 47.9 160.7 47.9 148.7C47.9 147.4 47.9 147.4 47.9 146L47.9 146L47.9 146C46.6 146 42.6 144.7 42.6 135.3C42.6 127.3 45.3 109.9 50.6 107.2C51.9 105.9 53.3 105.9 54.6 105.9C56 105.9 55.9 105.9 57.3 105.9V104.6C68.1 78 73.5 58 85.5 48.6C45.4 43.3 30.7 19.2 17.4 -2.1C4.1 -23.5 0 -48.9 0 -48.9H240.3C240.3 -48.9 233.6 -30.2 210.9 0.5C190.7 25.8 177.3 44.5 135.9 49.9z"></glyph><glyph path-name="people-5" unicode="&#x79;" horiz-adv-x="320" d=" M229.6 193.6C230.2 191 230.9 188 231.8 184.6C234.4 175.3 233.8 163.4 233.3 152.9C233.2 151.8 233.2 150.7 233.1 149.6C236.8 145 238.6 138.7 238.5 130.9C238.4 125.7 237.5 118.8 236.1 112.9C233.5 102.4 229.6 95.8 223.8 92.1C222.9 91.5 222 91 221 90.6C220.5 89.4 220.1 88.3 219.7 87.1C216.5 78.8 213.6 71.2 210.4 64.4C228.4 59.4 241.9 52.3 252.7 46.8C256.8999999999999 44.6 260.8999999999999 42.6 264.3999999999999 41C295.2 27.3 304.2 10.8 306.7999999999999 0.6L307.3999999999999 -1e-13L307.5999999999999 -3.9C307.7 -4.9 307.5999999999999 -5.7 307.5999999999999 -6.4V-8.8L307.5999999999999 -8.8L319.8999999999999 14.3C319.8999999999999 14.3 321.3999999999999 28.1 293.5 40.5C279.7 46.6 287.6 58.5 258.2 62.2C267.0999999999999 69 271.2 83.1 278.8 102.4C278.9 102.7 279 103 279.1 103.3C279.7 103.2 280.4 103.1 281 103.1C282 103.1 283 103.3 283.8 103.8C287.3 106 289.5 118.1 289.5 123.9C289.6 131.3 286.5 131.9 285.5 131.9C285.3 131.9 285.2 131.9 285.2 131.9S285.0999999999999 131.9 285 132C285 132.7 285.1 133.4 285.1 134.1C285.1 142.1 286.7 155.5 284.6 163C281.4 174.3 282.1 178.6 276.3 184.7C268.1 193.4 256.2 197.1 251.4 197.1C248.8 197.1 238.5 200.7 229.3 200.7C228.8 200.7 228.2 200.7 227.7 200.7C228.5 198.3 229 196 229.6 193.6L229.6 193.6zM257.9 26.4C240.5 34.1 220 49.1 183.1 53.7C194.3 62.3 199.5 80 209 104.2C209.1 104.5 209.3 104.9 209.4 105.3C210.2 105.2 211 105.1 211.8 105.1C213.1 105.1 214.3 105.3 215.3 106C219.7 108.8 222.4 123.9 222.5 131.3C222.6 140.5 218.8 141.3 217.5 141.3C217.2 141.3 217.1 141.3 217.1 141.3S217 141.3 216.8 141.4C216.8 142.3 216.9 143.2 216.9 144.1C216.9 154.1 218.9 171 216.3 180.4C212.3 194.6 213.1 200 205.8 207.7C195.5 218.6 180.5 223.3 174.5 223.3C171.3 223.3 158.1999999999999 227.8 146.6999999999999 227.8C143.3999999999999 227.8 140.2999999999999 227.4000000000001 137.5 226.5000000000001C125.5 222.4 132.1999999999999 210.2 122.4 210.2C111.8 210.2 106.9999999999999 194.6 103.1 180.4C100.5 171.2 102.5 154.6 102.5 144.2C102.5 143.3 102.5 142.5 102.6 141.6C102.3 141.5 102.1 141.5 102.1 141.5S102 141.5 101.7 141.5C100.4 141.5 96.6 140.7000000000001 96.7 131.5C96.7999999999999 124.1 99.4999999999999 109 103.9 106.2C104.9 105.6 106.1 105.3 107.4 105.3C108.2 105.3 109.1 105.4 109.9 105.6C109.9999999999999 105.2 110.2 104.8 110.3 104.4C119.9 80 124.8 62.4 136.1 53.9C99.5 49.2 79.2 34.4 61.9 26.7C26.9 11.1000000000001 28.3 -6.1999999999999 28.3 -6.1999999999999L26.7 -35.1999999999999H293.0999999999999L291.4999999999999 -6.1999999999999C291.6 -6.6 293.1 10.8 257.9 26.4L257.9 26.4zM12.1 -8.7L12.3 -6.3C12.3 1.1 15.9 23.4 55.5 41C59 42.6 63 44.6 67.2 46.8C77.8 52.3 91.2 59.3 109 64.3C106 70.8 103.2 78 100.3 85.9C99.7 87.4 99.1 89 98.5 90.6C97.5 91 96.4 91.6 95.5 92.2C89.7 95.9 85.8 102.5 83.2 112.9C81.8 118.8 80.8 125.7 80.8 131C80.7 138.9 82.6 145.2 86.4 149.8C86.4 150.9 86.3 152.1 86.2 153.2C85.7 163.6 85.2 175.3 87.7 184.4C88.9 188.6 90.1 192.8 91.6 197C88.8 197.2 78.6 200.6 69.7 200.6C67.1 200.6 64.6 200.3 62.4 199.6C52.9 196.3 58.2 186.6 50.4 186.6C42 186.6 38.2 174.2 35 162.9C33 155.6 34.5 142.4 34.5 134.1C34.5 133.4 34.5 132.7 34.6 132C34.4 131.9 34.2 131.9 34.2 131.9S34.1 131.9 33.9 131.9C32.9 131.9 29.8 131.3 29.9 123.9C30 118 32.1 106 35.6 103.8C36.4 103.3 37.4 103.1000000000001 38.4 103.1000000000001C39.1 103.1000000000001 39.7 103.2000000000001 40.4 103.3C40.5 103 40.6 102.7000000000001 40.8 102.4C48.4 83 52.3 69 61.3 62.2000000000001C32.2 58.4 40.2 46.7 26.5 40.5000000000001C-1.4 28.2 0 14.4 0 14.4L12.1 -8.7z"></glyph><glyph path-name="people-what" unicode="&#x7a;" horiz-adv-x="320" d=" M241.6 50.9C236.4 49.6 229.7 46.9 224.3 42.9C231 37.7 238.9 31 245.6 23C249.6 19 252.3 15 256.2 11.1H320C320 11.1 296 47 273.5 50.9C278.7 57.6 284.1 66.9 288.1 77.5C290.8 84.2 290.8 113.4 289.4000000000001 118.7C284.2000000000001 136 272.1 141.2 257.6 141.2S231.0000000000001 136 225.8 118.7C224.5 113.4 224.5 84.1 227.1 77.5C231 66.9 236.3 57.6 241.6 50.9zM188.4 50.9C199 61.5 207 78.8 215 100C220.2 111.9 220.2 163.8 217.7 173C208.4 204.8 185.9 212.8 160.5 212.8C133.9 212.8 111.4 203.5 103.3 173C100.6 163.7 102 111.8 106 100C114 80.1 121.9 62.8 132.6 50.9C92.8 44.2 48.9 -20.9 48.9 -20.9L48.9 -20.9H272.2L272.2 -20.9C272.2 -20.9 228.4 42.9 188.4 50.9zM74.2 21.7C82.2 29.7 88.8 36.3 95.5 41.6C90.3 45.6 83.6 48.3 78.2 49.6C83.4 56.3 88.8 65.6 92.8 76.2C95.5 82.9 95.5 112.1 94.1 117.4C88.9 134.7 76.8 140 62.3 140C47.7 140 35.7 134.7 30.5 117.5C29.2 112.3 29.2 82.9 31.8 76.3C35.8 64.4 41.1 55 46.4 49.7C24 45.6 0 9.8 0 9.8L0 9.8H63.8C67.7 15 70.3 19 74.2 21.7z"></glyph><glyph path-name="personal-records" unicode="&#x7b;" horiz-adv-x="320" d=" M218.8 256V236H100V256H13.3C13.3 236 25.3 141.3 73.2 99.9S142.5 40 142.5 15.9C142.5 -20.1 89.2 -12.1 89.2 -36.1H230.6C230.6 -12 177.3 -20.2 177.3 15.9C177.3 40 198.6 58.5 246.6 99.9S306.7 237.4 306.7 256H218.8L218.8 256zM29.4 244H86.8V236V225.4L86.8 225.4C86.8 134.8 113.5 85.4 113.5 85.4C29.4 129.3 29.4 244 29.4 244zM206.8 85.3C206.8 85.3 233.5 134.6 233.5 225.3L233.5 225.3V236V244H290.9C290.7 244 290.7 129.3 206.8 85.3zM76.1 -42.7H245.5V-64H76.1V-42.7z"></glyph><glyph path-name="pounds" unicode="&#x7c;" horiz-adv-x="320" d=" M22.6 240.7V-27C22.6 -39.2 24.4 -48.5 28.2 -54.7C31.8 -61 37 -64 43.9 -64H136.1C139 -64 141.4 -62.7 143.2 -60.1C144.8 -57.9 145.5 -55.1 145.5 -52.1C145.3000000000001 -49 144.5 -46.3 142.9 -44.1C141.1 -41.9 138.7000000000001 -40.7 135.8000000000001 -40.7H50.5C46.7 -40.7 44.2 -39.7 42.8 -37.8000000000001C41.6 -35.9000000000001 41 -32.1000000000001 41 -26.7V240.7C41 245.5 40 249.3 38.1 252.2C36.3 254.7 34.2 256 31.9 256C29.4 256 27.1 254.7 25.4 252.1C23.5 249.3 22.6 245.4 22.6 240.7zM234.9 248.8H197C187.2 248.8 180 245.9 175.6 239.9C171.4 234.5 169.4 226 169.4 214.3V-32.1C169.4 -40.8 171.3 -48.3 175.3 -54.6S184.3 -63.9 190.4 -63.9H241.1C256.9000000000001 -63.9 270 -56.3 280.6 -41.0000000000001C291.9000000000001 -24.8000000000001 297.4000000000001 -3.3000000000001 297.4000000000001 23.6999999999999C297.4000000000001 48.1999999999999 293.1 67.3999999999999 284.7000000000001 81.5999999999999C278.6 91.7999999999999 271.0000000000001 98.4999999999999 262.2000000000001 101.9999999999999C270.8000000000001 108.3 277.5000000000001 117.5 282.0000000000001 129.6999999999999C286.4000000000001 140.9 288.5000000000001 153.5999999999999 288.5000000000001 168.4C288.5000000000001 193.4 283.0000000000001 213.4 271.9000000000001 228.5C261.9 242 249.5 248.8 234.9 248.8L234.9 248.8L234.9 248.8zM240.5 111.7H187.7V212.2C187.7 217.1 188.5 220.6 190 222.9C191.5 224.6 194.1 225.4 197.4 225.4H241.3C249 225.4 255.8 219.6 261.8 207.9C267.5 196.5 270.4000000000001 183.3 270.4000000000001 168.3C270.4000000000001 153.8 267.4000000000001 140.8 261.5000000000001 129.5C255.7 117.7 248.6 111.7 240.5 111.7L240.5 111.7L240.5 111.7zM242.8 -40.7H198.7C195.4 -40.7 192.7 -39.3 190.7 -36.4C188.8 -33.3 187.7 -28.9 187.7 -23.2V88.3H242C252.9 88.3 261.8 81.6 269 68.3C275.9 55.8 279.3 40.8 279.3 23.6C279.3 6.7 276 -8.2 269.3 -20.7C262.1 -34 253.3 -40.7 242.8 -40.7z"></glyph><glyph path-name="runner-tie" unicode="&#x7d;" horiz-adv-x="320" d=" M253.751 191.989C258.473 209.992 276.895 220.759 294.899 216.037C312.902 211.315 323.669 192.893 318.947 174.889S295.803 146.119 277.799 150.841C259.796 155.563 249.029 173.985 253.751 191.989zM252.5 58.9C252.5 58.9 241.8 111.3 241.5 111.9C241.6 113.3 244.9 182.8 244.9 182.8C245 198.7 225.5 206.8 211.1 203.5C179.8 195 141.1 166.3 129.6 155.4L97.6 124.6C94.9 122 93 118.8 92 115.3C87.6 101.9 93.6 82.6 116.2 75.3L172.5 57.9L204 -8C208.2 -18.8 215 -26.2 226.5 -23.8L226.5 -23.8C237.3 -19.6 238.7 -7.3 234.5 3.5L207.3 82.5C206.3 85 204.9 87.2 203.1 89.1C201.1 91.4 198.5 93.3 195.5 94.6L162.1 108.7L189 134.5L205.5 142.2L207.8000000000001 112.1C208 107.8 209.4 102.4 210.6000000000001 98.7C211.2000000000001 97 228.0000000000001 47.7 228.0000000000001 47.7C231.4000000000001 39.3 238.0000000000001 34.6 246.4000000000001 38L246.4000000000001 38C254.8 41.5 254.4 49.3 252.5 58.9zM113.4 66.1L113.4 66.1C97.1 71.4 89.2 81.3 85.4 88.7C84.3 90.8 83.4 93.1 82.7 95.3C82.3 94.1 82.1 92.8 82 91.5L81.5 34.9L15.8 4.6C5.7 1.4 -1.4 -4.4 0.1 -15.0000000000001C3.3 -25.1000000000001 14.5 -27.1000000000001 24.5 -23.9L105.8 3.2C109.9 4.5 113.2 7.1 115.5 10.3999999999999C117.9 13.4999999999999 119.5 17.3 119.7 21.4L121.7 63.3L113.4 66.1L113.4 66.1z"></glyph><glyph path-name="segments" unicode="&#x7e;" horiz-adv-x="320" d=" M291.2 213.3C273.6 213.3 260.2 199.8 260.2 182.3C260.2 174.2 262.9 167.4 267 162.1L213 82.6C210.3 84 207.7 84 203.5 84C198.2 84 192.7 82.6 188.6 79.9L144.1 124.5C146.8 128.6 148.2 134 148.2 139.4C148.2 157 134.7 170.4 117.2 170.4S86.2 156.9 86.2 139.4C86.2 132.6 88.9 125.9 93 120.5L40.5 39.5C37.8 40.9 35.2 40.9 31 40.9C13.4 40.9 0 27.4 0 9.9S13.5 -21.1 31 -21.1S62 -7.6 62 9.9C62 16.7 59.3 23.4 55.2 28.8L107.8 109.7C110.5 108.3 113.2 108.3 115.9 108.3C121.2 108.3 125.4 109.7 129.4 112.4L174 67.8C171.3 63.7 171.3 58.3 171.3 54.3C171.3 36.7 184.8 23.3 202.3 23.3S233.3 36.8 233.3 54.3C233.3 61.1 230.6 67.8 226.5 73.2L280.4 154.1C283.1 154.1 285.7 152.7 288.5 152.7C306.1 152.7 319.5 166.2 319.5 183.7C322.2 198.4 308.8 213.3 291.2 213.3z"></glyph><glyph path-name="sleep" unicode="&#x7f;" horiz-adv-x="320" d=" M117 124V148H1V116H65.2L0 22.7V-5H118V29H50.5L117 124zM229 176.2V196H133V168H186.5L132 92V69H230V97H174.6L229 176.2zM278.7 57L319 117.4V132H248V110H288.1L247 54.7V37H320V57H278.7z"></glyph><glyph path-name="smartphone" unicode="&#xc1;" horiz-adv-x="320" d=" M233.9 256H86.1C73.1 256 62.5 245.4 62.5 232.4V-40.3C62.5 -53.4 73.1 -63.9 86.1 -63.9H233.8C246.9 -63.9 257.4 -53.3 257.4 -40.3V232.4C257.5 245.4 246.8 256 233.9 256zM160 -48.3C151.7 -48.3 144.9 -41.5 144.9 -33.2C144.9 -24.9 151.7 -18.1 160 -18.1S175.1 -24.9 175.1 -33.2S168.4 -48.3 160 -48.3zM239.7 -2H80.3V194H239.8V-2H239.7z"></glyph><glyph path-name="speech-bubble" unicode="&#xc2;" horiz-adv-x="320" d=" M159.9 256C77.4 256 10.9 189.4 10.9 106.9C10.9 52.3 40.1 5.7 82.8 -20.9C81.5 -31.6 74.8 -44.9 57.5 -58.1C49.5 -64.7999999999999 88.2 -72.7999999999999 128.1 -38.2C138.8 -40.9 149.3 -42.2 160.1 -42.2C242.7 -42.2 309.2000000000001 24.4 309.2000000000001 106.9S242.6 256 159.9 256z"></glyph><glyph path-name="star" unicode="&#xc3;" horiz-adv-x="320" d=" M315.8 134C313.1 137.9 309.1 139.3 306.5 139.3C303.8 140.6 301.2 140.6 298.5 140.6H209.3C208 140.6 206.6 140.6 205.3 141.9S202.6 144.6 202.6 145.8L175.9 239.1C174.6 241.8 174.6 244.4 172 247.1C170.7 251.1 166.7 255.1 160 255.1S149.2 251.1 146.7 248.4C145.4 245.7 144 243.1 142.8 240.4L117.4 147.2C117.4 145.9 116.1 144.5 114.7 143.3C113.4 142 110.8 142 110.8 142H21.4C17.5 142 14.7 142 10.7 140.7C9.4 139.4 6.8 138 4 136.8C1.3 132.8 0 128.8 0 124.8C0 119.5 2.7 116.8 4 114.1S7.9 110.2 10.7 108.8L82.6 60.8C83.9 60.8 86.6 56.9 86.6 54.1C86.6 52.8 86.6 52.8 86.6 52.8L58.6 -39.1C57.3 -41.8 57.3 -44.4 57.3 -47.1S57.3 -53.8 60 -56.4C62.7 -60.4 68 -63.1 72 -63.1C80 -63.1 82.7 -60.4 86.7 -56.4L157.4 3.6C157.4 3.6 160.1 4.9 161.3000000000001 4.9S164 4.9 165.2000000000001 3.6L239.8000000000001 -57.6C243.8000000000001 -60.3 246.5000000000001 -62.9 253.1000000000001 -62.9L253.1000000000001 -62.9C257.1 -62.9 262.4000000000001 -60.2 265.1 -57.6C267.8 -53.7 267.8 -50.9 267.8 -48.3C267.8 -44.3 266.5 -41.6 266.5 -39L234.6 54.2V55.5C234.6 58.2 235.9 62.2 237.3 62.2L309.2 110.1C311.9 111.4 313.2 112.8 315.9 115.4C317.2 118.1 319.9 120.7 319.9 126.1C319.8 128.6 318.5 132.6 315.8 134z"></glyph><glyph path-name="steps-1" unicode="&#xc4;" horiz-adv-x="320" d=" M85.3 256C42.9 254.6 27.3 210.7 28.8 188C28.8 173.9 33 135.7 38.7 100.2L40.1 52.1C40.1 29.5 60 11 82.6 12.5C105.2 12.5 122.2 29.5 122.2 55C122.2 64.9 119.3 84.7 115.1 107.3C115.1 149.8 139.2 148.4 137.7 200.7C136.3 230.5 117.8 256 85.3 256zM246.8 178.1C215.7 185.2 191.6 164 184.5 132.8C173.1 81.8 195.9 79 187.4 36.5C178.9 15.3 171.8 -4.6 170.4 -13.1C166.2 -37.2 178.9 -56.9 201.5 -62.7C224.1 -68.3000000000001 245.3 -54.2 251.1 -31.6L262.5 15.1C276.6 49.1 288 84.4 290.8 98.7C293.5 122.8 287.7 168.2 246.8 178.1z"></glyph><glyph path-name="steps-2" unicode="&#xc5;" horiz-adv-x="320" d=" M241.7 50.9C239 46.9 235 41.5 232.3 37.6C220.3 21.5 208.2 6.8 193.4 -3.9C189.4 -6.6 185.4 -7.9 181.3 -10.6H178.6C166.5 0.2 155.8 9.4 143.8 20.2C143.8 20.2 143.8 20.2 142.5 20.2C145.2 25.5000000000001 147.8 31.0000000000001 150.5 35.0000000000001C153.2 41.7 155.8 48.3000000000001 155.8 56.4000000000001C155.8 69.7000000000001 161.1 81.8000000000001 169.1 92.6000000000001S185.2 112.6000000000001 195.9 122.0000000000001C203.9 128.7000000000001 212 132.8000000000001 222.7000000000001 135.3000000000001C237.5000000000001 138.0000000000001 257.5000000000001 125.9000000000001 258.9000000000001 105.9000000000001C258.9000000000001 96.5000000000001 257.6 87.1000000000001 253.6 77.8000000000001C250.9000000000001 72.5000000000001 249.6 67.0000000000001 246.9000000000001 60.4000000000001C244.4 57.5 243.1 53.5 241.7 50.9zM105.1 -60.3C90.3 -48.2 95.7 -29.5 102.4 -18.8C109.1 -8 118.5 -1.4 129.2 4C130.5 4 131.9 4 131.9 4C137.2 -1.3 142.7 -6.8 148 -12.1S158.8 -22.9 165.4 -28.2C162.7 -32.2 158.7 -37.6 156 -41.5000000000001C150.7 -48.2 143.9 -54.8000000000001 136 -58.9C128 -62.9 119.9 -65.6 110.6 -62.9C109.2 -61.6 107.8 -61.6 105.1 -60.3zM189.5 249C201.6 237 200.3 222.2 197.5 206.1C193.5 190 186.7 174 177.5 159.2C173.5 152.5 168.1 147.2 161.4 143.1C149.3 136.4 141.4 127 133.3 116.3C132 115 132 113.6 130.6 112.3C123.9 115 118.5 117.6 113.2 120.3C105.2 123 97.1 127 89.1 129.7C87.8 129.7 86.4 131 86.4 132.4C85.1 139.1 86.4 145.7 89.1 152.4C94.4 169.8 101.2 187.2 109.1 203.3C110.4 207.3 113.1 211.3 115.8 214.1C118.5 216.8 119.8 219.4 122.5 223.5C123.8 224.8 125.2 226.2 126.5 227.5C133.2 235.5 139.8000000000001 243.6 149.3000000000001 248.9C156 254.2 164.1000000000001 256.9 173.4 255.6C177.4 255.6 181.4 252.9 186.7000000000001 251.6C185.5 251.7 186.8 250.3 189.5 249zM75.7 112.4C81 111.1 85.1 109.7 89 107.1C99.8 103.1 109 100.4 119.8 96.3C121.1 96.3 122.5 95 122.5 93.6C121.2 78.8 118.5 64.2 107.7 52.1C102.4 46.8 96.9 42.7 88.9 41.3C76.8 38.6 64.8 46.6 62.1 60.1C59.4 70.9 62.1 81.5 66.1 92.2C69 100.4 72.9 105.7 75.7 112.4z"></glyph><glyph path-name="steps" unicode="&#xc6;" horiz-adv-x="320" d=" M306.7 88.3C277.4 91 249.4 99 224 112.3C218.7 115 214.7 117.6 209.3 120.3C204 117.6 200 115 194.6 112.3C191.9 111 190.6 111 187.9 111C183.9 111 181.2000000000001 115 181.2000000000001 119S182.5000000000001 125.7 186.5000000000001 127C189.2000000000001 128.3 190.5000000000001 129.7 193.2000000000001 131C187.9 135 183.9 137.7 178.5000000000001 141.7C173.2000000000001 139 169.2000000000001 136.4 163.8000000000001 133.7C162.5000000000001 132.4 159.8000000000001 132.4 157.1000000000001 132.4S150.4000000000001 135.1 149.1000000000001 139.1C149.1000000000001 141.8 147.8000000000001 143.1 150.4000000000001 145.8C151.7000000000001 147.1 154.4000000000001 149.8 155.7000000000001 151.1C158.4000000000001 152.4 161.0000000000001 153.8 162.4000000000001 155.1C163.7000000000001 155.1 163.7000000000001 156.4 165.1000000000001 156.4L165.1000000000001 156.4C162.4000000000001 159.1 159.8000000000001 160.4 157.1000000000001 163.1C153.1000000000001 165.8 149.1000000000001 167.1 145.1000000000001 167.1C137.1000000000001 168.4 129.1000000000001 167.1 122.4000000000001 161.8C121.1000000000001 160.5 119.7000000000001 159.1 118.4000000000001 159.1C107.7000000000001 152.4 97.1000000000001 147.1 85.1000000000001 144.4C97.1000000000001 139.1 107.8000000000001 135.1 118.4000000000001 129.7C130.4000000000001 123 142.4000000000001 115 153.1000000000001 105.7C158.4000000000001 100.4 163.8000000000001 95 170.4000000000001 89.7C187.7000000000001 76.4 225.1000000000001 51 225.1000000000001 51C229.1000000000001 51 249.1000000000001 51 271.8000000000001 55C285.1000000000001 57.7 297.1000000000001 61.7 306.5000000000001 69.7C313.4 75 314.7 81.7 306.7 88.3C308 88.3 308 88.3 306.7 88.3zM127.9 63C123.9 63 71.9 71 62.6 72.3C50.6 73.6 18.6 73.6 17.3 73.6C14.6 74.9 12 76.3 10.6 80.3C6.6 89.6 5.3 100.3 3.9 109.6C2.6 120.3 3.9 130.9 7.9 141.6C10.6 149.6 14.6 156.3 19.9 161.6C21.2 162.9 21.2 162.9 22.6 164.3C25.3 167 29.3 167 30.6 161.6C31.9 157.6 33.3 153.6 34.6 149.6C34.6 148.3 35.9 146.9 37.3 145.6C38.6 142.9 41.3 140.3 44 137.6C45.3 136.3 46.7 134.9 49.3 133.6C68 120.3 84 105.6 101.3 90.9C103.9 88.3 127.9 63 127.9 63zM53.3 27C16 29.7 0 36.3 0 36.3S9.3 55 12 56.3C33.3 60.3 73.3 55 85.3 53.6C96 52.3 132 46.9 144 45.6C190.7 36.3 238.7 36.3 261.3 40.3C277.3 43 290.6 48.3 305.3 53.6C309.3 54.9 317.3 60.3 320 57.6C317.3 49.6 280 32.3 245.3 28.3C207.9 24.3 105.3 22.9 53.3 27zM182.6 51C178.6 51 174.6 52.3 170.6 52.3C167.9 52.3 163.9 53.6 161.3 53.6H160C156 58.9 150.7 62.9 146.7 68.3C134.7 80.3 122.7 91 109.4 101.6C98.6 111 86.6 119 74.6 125.7C70.6 127 67.9 129.7 63.9 131C66.6 131 70.6 132.3 73.2 132.3C73.2 132.3 94.5 121.6 103.9 116.3C115.9 109.6 129.2 101.6 139.9 92.3C145.3 91 175.9 59 182.6 51C182.6 52.3 182.6 52.3 182.6 51z"></glyph><glyph path-name="stones" unicode="&#xc7;" horiz-adv-x="320" d=" M87.3 256H83.9C67 256 53.2 249.5 42.5 236.5C31.3 222.6 25.8 203.2 25.8 178.4C25.8 155.7 30.9 137.5 41.1 123.9C47.6 115.4 60.9 104.4 80.8 91L83.7 89C102.5 76.2 114.4 66.3 119.8 59.1C127.2 49.1 130.9 35.3 130.9 17.5C130.9 -1.1 125.4 -15.9 114.4 -27C105.5 -36.1 96.2 -40.7 86.6 -40.7C72.3 -40.7 61 -35.7 52.7 -25.8C43.3 -14.4 37.8 2.7 36.2 25.7C35.8 30.4 34.7 34 32.8 36.5C31 38.4 28.9 39.2 26.6 38.9C24.3 38.3 22.3 36.9 20.8 34.3C19.1 31.5 18.4 27.9 18.8 23.4C20.7 -6.8 28 -29.3 40.8 -44C52 -57.3 67.4 -63.9 87.2 -63.9C102.3 -63.9 115.9 -56.7 128 -42.3C141.9 -25.9999999999999 148.8 -5.4 148.8 19.6000000000001C148.8 44.1000000000001 143.6 62.6000000000001 133.2 75.7000000000001C126.2 84.5000000000001 110.9 96.5000000000001 87.1 111.4C68.9 123.1 57.2 133.4 51.8 142.5S43.7 165.9 43.7 185.3C43.7 199.4 48 211.1 56.5 220.2C64.6 228.5000000000001 74.1 232.7 84.9 232.7C95.6 232.7 104.7 228.1 112.4 219C120.5 209 125 195.8 126 179.1C126.2 175.1 127.3 172.3 129.4 170.4C131.3000000000001 168.5 133.6 167.7 136.1 168C138.8 168.6 141 170.2 142.5 173C144.2 176 145 179.9 144.8000000000001 184.7C143.7000000000001 203 138.2000000000001 219 128.6000000000001 232.5C117.5 248.3 103.8 256 87.3 256zM292 249H171C166.2 249 163.9 245.2 164.1 237.7C164.3 230 166.6 226.1 171 226.1H223.5V-51.2C223.5 -55.1 224.4 -58.3 226.1 -60.7C227.8 -62.9 230 -64 232.5 -64C234.7 -64 236.8 -62.9 238.5 -60.7C240.4 -58.2 241.4 -55 241.4 -51.2V226.2H292C295.1 226.2 297.6 227.5 299.3 230C300.8 232.2 301.5 234.9 301.3 237.8C301.1 240.8 300.2 243.5 298.7 245.7C296.8 247.9 294.5 249 292 249z"></glyph><glyph path-name="stress" unicode="&#xc8;" horiz-adv-x="320" d=" M158.9 249.2C118.6 249.2 85.9 216.5 85.9 176.2S118.6 103.2 158.9 103.2S231.9 135.9 231.9 176.2S199.2 249.2 158.9 249.2zM189.7 189.5L131.9 123.5L153 170.2H128.2L146.6 228.9H189.7L164.9 189.4H189.7L189.7 189.5L189.7 189.5zM238.7 -46.1V-25.4C238.7 -23.5000000000001 241.3 -23.1 241.9 -24.9L249 -46.1H319.5C319.5 -40 292 32.1 292 32.1L291.4 33.5C275.3 69.9 239 93.4 198.8 93.4H115.4C75.3 93.4 38.9 69.9 22.8 33.5L22 31.7C22 31.7 0.2 -39.6 0.2 -46.2H66.7L72.8 -26.2C73.4 -24.4 76 -24.8000000000001 76 -26.7V-46.2"></glyph><glyph path-name="sync" unicode="&#xc9;" horiz-adv-x="320" d=" M320 16L305.3 129.3L276 100L209.3 168L169.3 126.7L236 60.1L206.7 32L320 16zM113.3 160L0 176L16 62.7L44 92L113.3 22.7L153.3 64L85.3 132L113.3 160z"></glyph><glyph path-name="task" unicode="&#xca;" horiz-adv-x="320" d=" M276.2 228.1H259V240.1C258.9 248 252.3 256 243 256C233.7 254.7 227 248 227 240.1V228.1H175.3V240.1C175.3 248.1 168.6 254.7 160.7 254.7C152.7 254.7 144.8 248 144.8 238.8V228.1H94.2V240.1C94.2 248.1 87.5 254.7 78.3 254.7S62.4 248 62.4 238.8V228.1H45.1C27.9 228.1 13.2 213.5 13.2 196.2V-32.1C13.2 -49.3 27.8 -64 45.1 -64H274.8C292 -64 306.7 -49.4 306.7 -32.1V196.2C308 213.6 293.4 228.1 276.2 228.1zM276.2 -29.3H45.2V193.7H62.4V183C62.4 175 69.1 167.1 78.3 167.1S94.2 175.1 94.2 183V193.7H144.7V183C144.7 175 151.4 167.1 160.6 167.1C168.6 167.1 176.5 173.8 176.5 183V193.7H227V183C227 175 233.7 167.1 242.9 167.1C252.2 167.1 258.8 173.8 258.8 183V193.7H277.5L276.2 -29.3L276.2 -29.3L276.2 -29.3zM224.3 131.3C221.6 134 217.6 134 215 131.3L142.1 58.3C139.4 55.6 135.4 55.6 132.8 58.3L106.2 84.9C103.5 87.6 99.5 87.6 96.9 84.9L79.7 68.9C77 66.2 77 62.2 79.7 59.6L122.2 17.1C124.9 14.4 130.2 11.9 132.9 11.9H140.9C144.9 11.9 150.2 14.6 151.6 17.1L240.5 106C243.2 108.7 243.2 112.7 240.5 115.3L224.3 131.3z"></glyph><glyph path-name="unlocked" unicode="&#xcb;" horiz-adv-x="320" d=" M238.8 252H237.5H236C190.7 252 154.7 216 154.7 170.7C154.7 170.7 154.7 142.7 154.7 121.4H0V-60H224V120H194.7C194.7 140 194.7 169.3 194.7 169.3C194.7 192 213.4 210.6 236 210.6H238.7C238.7 210.6 238.7 210.6 240 210.6C262.7 210.6 280 191.9 280 169.3C280 169.3 280 160 280 149.3H293.3V145.3L280 132C280 128 280 124 280 120H320C320 140 320 169.3 320 169.3C320 214.7 284 252 238.8 252zM182.7 -17.3H40V77.4H182.7V-17.3L182.7 -17.3z"></glyph><glyph path-name="water-bottle" unicode="&#xcc;" horiz-adv-x="320" d=" M151.6 178.2H153.1H150.2H151.6zM237 173.7C237 186 224.7 196.5 206.5 201.1V204.2V210.2C206.5 213.3 205 214.8 201.9 216.2C197.3 219.3 179.1 222.2 162.2 223.8V245.3H171.3C169.9 249.9 160.8 256 151.6 256C142.5 256 133.3 248.4 131.8 245.3H140.9V223.9C124.1 222.4 105.8 220.8 101.2 216.3C99.7 214.8 96.7 213.2 96.7 210.3V204.3V196.7V189H104.3H198.8H206.4L206.4 189C217.0999999999999 185.9 224.7 179.9 224.7 172.2S212.4 155.4 195.8 153.9H194.4C189.9 164.6 195.9 173.7 199 176.7H153.3H151.6H150.2H104.5C109 172.2 115.2 163 109 152.4C109 152.4 107.5 146.4 96.7 140.1C96.7 140.1 83 132.5 83 111.2V-41.1C83 -41.1 83 -63.9 115 -63.9H147H151.5999999999999H183.5999999999999C214.0999999999999 -63.9 215.5999999999999 -41.1 215.5999999999999 -41.1V111.1C215.5999999999999 132.5 201.9 140 201.9 140C198.8 141.5 197.3 143.1 195.9 144.5C221.7 149.4 237 159.9 237 173.7zM128.8 124.9C128.8 124.9 119.7 118.9 119.7 103.5V33.4C119.7 28.9 116.6 25.8 112.1 25.8C107.5 25.8 104.5 28.9 104.5 33.4V103.5C104.5 127.8 121.3 137 121.3 137C122.8 137 124.4 138.5 124.4 138.5C127.5 138.5 129 137 130.4 135.4C133.3 132.6 131.9 128 128.8 124.9z"></glyph><glyph path-name="water-percentage" unicode="&#xcd;" horiz-adv-x="320" d=" M160 242.1L160 242.1L160 242.1C119.7 242.1 83.1 225.8 56.7 199.3C30.2 172.8 13.9 136.4 13.9 96L13.9 96L13.9 96L13.9 96L13.9 96C13.9 55.7 30.2 19.2 56.7 -7.3S119.6 -50.1 160 -50.1L160 -50.1L160 -50.1L160 -50.1L160 -50.1C200.3 -50.1 236.8 -33.8 263.3 -7.3S306.1 55.6 306.1 96L306.1 96L306.1 96L306.1 96L306.1 96C306.1 136.3 289.8 172.8 263.3 199.3S200.4 242.1 160 242.1L160 242.1L160 242.1L160 242.1zM160 256L160 256L160 256L160 256L160 256C204.2 256 244.2 238 273.1 209.1S320 140.2 320 96L320 96L320 96L320 96L320 96C320 51.9 302.1 11.8 273.1 -17.1C244.2 -46 204.2 -64 160 -64L160 -64L160 -64L160 -64L160 -64C115.9 -64 75.8 -46.1 46.9 -17.1C18 11.8 0 51.8 0 96L0 96L0 96L0 96L0 96C0 140.1 17.9 180.2 46.9 209.1C75.8 238 115.8 256 160 256L160 256zM160.1 218.1C163.7 212.1 185.4 177.7 215.9 146.5C245.3 116.4 255.8 83.1 255.4 58.4L255.1 54.4C255.1 10 212.5 -26 159.8 -26H157.9C106.3 -25 64.9 10.6 64.9 54.4L64.6 58.4C64.2 83.1 74.7 116.2 104.1 146.5C137.6 181.1 160.1 218.1 160.1 218.1L160.1 218.1L160.1 218.1L160.1 218.1zM186.6 141.5L124.8 8.2C123.7 5.8 124.7 2.9 127.1 1.7C129.5 0.6 132.4 1.6 133.6 4L195.4 137.3C196.5 139.7 195.5 142.6 193.1 143.8C190.5 145 187.7 143.9 186.6 141.5L186.6 141.5L186.6 141.5zM125.4 136.7C118.7 136.7 113.3 133.5 109.5 126.9C106.3 121 104.6 113.6 104.6 104.9C104.6 96.3 106.2 89.1 109.5 83.3C113.5 76.6 118.7 73.3 125.4 73.3S137.4 76.6 141.3 83.3C144.9 89.2 146.6 96.5 146.6 104.9C146.6 113.6 144.8 121 141.3 126.9C137.5 133.3 132.2 136.7 125.4 136.7L125.4 136.7L125.4 136.7zM194.4 72.8C187.6 72.8 182.2 69.6 178.5 62.9C175.1 57 173.4 49.6 173.4 40.9C173.4 32.3 175.1 25 178.5 19.1C182.3 12.4 187.6 9.1 194.4 9.1C201.1 9.1 206.5 12.4 210.3 19.1C213.7 25 215.4 32.3 215.4 40.9C215.4 49.6 213.7 56.9 210.3 62.9C206.4 69.4 201.1 72.8 194.4 72.8L194.4 72.8zM125.4 84.4C122.3 84.4 119.9 86.4 118.4 90.7C117 94.3 116.3 98.9 116.3 104.7C116.3 110.8 117 115.7 118.4 119.3C119.9 123.4 122.3 125.4 125.4 125.4C128.4 125.4 130.9 123.4 132.6 119.3C134.1 115.6 134.8 110.8 134.8 104.7C134.8 98.9 134.1 94.2 132.6 90.7C130.9 86.6 128.5 84.4 125.4 84.4zM194.4 20.3C191.3 20.3 188.8 22.4 187.2 26.6C185.8 30.3 185.1 35 185.1 40.9C185.1 46.8 185.8 51.7 187.2 55.5C188.8 59.6 191.3 61.6 194.4 61.6C197.4 61.6 199.8 59.6 201.4 55.5C202.9 51.8 203.6 47 203.6 40.9C203.6 35.1 202.9 30.3 201.4 26.6C199.8 22.4 197.4 20.3 194.4 20.3L194.4 20.3z"></glyph><glyph path-name="weight" unicode="&#xce;" horiz-adv-x="320" d=" M161.5 81.4C209.5 81.4 249.5 120.1 249.5 169.4C249.5 217.4 209.5 256.1 161.5 256.1S73.4 217.3 73.4 168C73.5 120 113.6 81.4 161.5 81.4zM161.5 236C198.9 236 228.2 205.3 228.2 169.3S197.5 102.6 161.5 102.6C124.1 102.6 94.8 133.3 94.8 169.3S124.2 236 161.5 236zM294.8 193.4C290.7 196.1 282.8 198.6 274.8 201.4C277.5 190.8 278.9000000000001 181.4 278.9000000000001 169.5C278.9000000000001 104.1 225.7000000000001 50.8 160.2000000000001 50.8S41.5 104.1 41.5 169.4C41.5 180 42.8 190.7 45.5 201.3C37.5 198.6 29.5 196 25.5 193.3C14.9 189.3 -1.2 183.9 2.9 149.3C7 114.6 17.6 -18.6 20.3 -30.7C21.6 -41.3 28.3 -64 59 -64S231 -64 260.3 -64C291 -64 296.3 -42.7 299 -30.7C300.3 -20.1 311 114.6 316.4 149.3C322.8 182.8 305.5 188 294.8 193.4zM155.204 162.532L167.508 174.836L202.368 139.976L190.064 127.672L155.204 162.532z"></glyph><glyph path-name="wi-fi" unicode="&#xcf;" horiz-adv-x="320" d=" M91.6 52.7L111.8 32.5C138.4 59.1 181.7 59.1 208.3 32.5C208.4 32.4 208.5 32.3 208.6 32.1L228.8 52.4C228.7 52.5 228.6 52.6 228.5 52.8C190.7 90.5 129.3 90.5 91.6 52.7zM46.1 98.1L66.3 77.9C117.9 129.3 201.8 129.3 253.4 77.7C253.5 77.6 253.6 77.5 253.7 77.4L273.9 97.7C273.8 97.8 273.7 97.9 273.6 98C210.9 160.8 109 160.8 46.1 98.1L46.1 98.1zM319.3 144.4C231.2 232.5 88.4 232.5 0.2 144.4C0.1 144.3 0.1 144.3 0 144.2L20.2 124C20.3 124.1 20.3 124.1 20.4 124.2C97.2 201 222.2 201 299 124.2C299.2 124 299.4 123.7 299.7 123.5L320 143.7C319.8 143.8 319.6 144.1 319.3 144.4zM177.7 -1.2C177.7 -24.2 143.1 -24.2 143.1 -1.2C143.1 21.9 177.7 21.9 177.7 -1.2z"></glyph><glyph path-name="workouts" unicode="&#xd0;" horiz-adv-x="320" d=" M264 161.3L282.6 180L265.2000000000001 197.4L246.5000000000001 178.7C227.8000000000001 193.4 205.1000000000001 204 181.1000000000001 206.7L181.1000000000001 206.7V236.1H199.8000000000001V256H120V236H140V208L140 208C115.9 204 93.3 194.7 74.6 180L55.9 198.6L38.5 181.3L57.2 162.6C37.3 138.6 24 107.9 24 73.3C24 -2.7 85.3 -64 160 -64C236 -64 296 -2.6 296 72C295.9 106.7 283.9 138.7 264 161.3zM159.9 -26.6C105.2 -26.6 61.3 17.4 61.3 72S105.3 170.6 159.9 170.6S258.5 126.7 258.5 72S214.5 -26.6 159.9 -26.6zM151.23 67.55L168.271 84.591L224.839 28.023L207.798 10.982L151.23 67.55z"></glyph>
  </font>
</defs>
</svg>
